<svg version="1.1" id="Layer_1" xmlns="http://www.w3.org/2000/svg" xmlns:xlink="http://www.w3.org/1999/xlink" x="0px" y="0px"
	 width="100%" viewBox="0 0 316 123" enable-background="new 0 0 316 123" xml:space="preserve">
<path fill="#020202" opacity="1.000000" stroke="none" 
	d="
M246.000000,124.000000 
	C164.000031,124.000000 82.500046,124.000000 1.000055,124.000000 
	C1.000036,83.000038 1.000036,42.000072 1.000018,1.000082 
	C106.333260,1.000055 211.666519,1.000055 316.999817,1.000027 
	C316.999878,41.999920 316.999878,82.999840 316.999939,123.999878 
	C293.500000,124.000000 270.000000,124.000000 246.000000,124.000000 
M271.313721,56.723827 
	C270.573059,55.447468 269.655884,54.240929 269.119019,52.883938 
	C263.747742,39.307285 258.439056,25.705873 253.174469,12.268978 
	C248.502945,12.268978 244.248734,12.268978 239.857300,12.268978 
	C238.641235,32.899227 237.440689,53.266548 236.231628,73.778236 
	C241.132446,73.778236 245.566055,73.778236 250.741180,73.778236 
	C250.741180,63.047550 250.741180,52.542686 250.741180,42.037819 
	C255.544434,51.635460 259.641541,61.194214 263.528656,70.837624 
	C264.472839,73.179955 265.627319,74.079552 268.236694,74.079788 
	C276.427643,74.080536 276.431244,74.211426 279.601410,66.711151 
	C281.411346,62.428978 283.215088,58.144161 285.006897,53.854378 
	C286.540680,50.182373 288.053467,46.501595 289.575531,42.824696 
	C290.047974,42.916485 290.520447,43.008274 290.992920,43.100067 
	C290.992920,53.341225 290.992920,63.582382 290.992920,73.798752 
	C296.235260,73.798752 300.688965,73.798752 305.496979,73.798752 
	C304.270203,53.080971 303.056885,32.590622 301.843384,12.097213 
	C297.238159,12.097213 293.256805,12.097213 288.814972,12.097213 
	C283.154022,26.722527 277.465485,41.419003 271.313721,56.723827 
M136.457367,11.877625 
	C130.554596,11.877625 124.651810,11.877625 118.864136,11.877625 
	C118.864136,33.034531 118.864136,53.312836 118.864136,73.843750 
	C127.843826,73.843750 136.672791,74.346840 145.415176,73.692802 
	C153.127548,73.115822 160.090805,69.786209 164.075592,62.721359 
	C170.951187,50.531250 170.967758,37.726070 164.848663,25.399641 
	C159.350693,14.324430 148.954254,11.582152 136.457367,11.877625 
M71.663887,29.502005 
	C71.663887,23.731163 71.663887,17.960323 71.663887,12.267677 
	C66.275970,12.267677 61.520035,12.267677 56.920105,12.267677 
	C56.920105,26.649288 56.356155,40.785732 57.101822,54.852757 
	C57.679237,65.745636 65.258423,72.777756 76.028702,74.049301 
	C79.946899,74.511887 84.012451,74.487206 87.933159,74.025589 
	C99.898277,72.616882 107.536026,64.424919 107.972412,52.382130 
	C108.303703,43.239811 108.100922,34.077984 108.126602,24.924814 
	C108.138527,20.674976 108.128639,16.425076 108.128639,12.266873 
	C102.741623,12.266873 97.997826,12.266873 93.001968,12.266873 
	C93.001968,24.160900 93.063080,35.784492 92.957680,47.406578 
	C92.932297,50.205627 92.675835,53.084518 91.963417,55.777988 
	C90.570312,61.045036 86.264519,63.602478 80.925285,62.770294 
	C75.574348,61.936287 72.249229,58.484470 71.942482,52.459431 
	C71.570557,45.154213 71.732773,37.821796 71.663887,29.502005 
M187.767242,72.491882 
	C189.166199,68.066200 190.565155,63.640526 191.971680,59.190880 
	C198.733810,59.190880 205.208542,59.190880 211.874008,59.190880 
	C213.427094,64.080284 214.970566,68.939407 216.532822,73.857651 
	C221.565933,73.857651 226.360596,73.857651 231.600403,73.857651 
	C231.040039,72.105080 230.601379,70.546051 230.047348,69.029167 
	C224.179535,52.963627 218.301865,36.901672 212.408920,20.845339 
	C209.137329,11.931367 209.115112,12.165060 199.832733,11.883511 
	C196.234787,11.774380 195.053192,13.210358 193.948029,16.237453 
	C189.506744,28.402460 184.777527,40.462112 180.188263,52.573418 
	C177.556519,59.518742 174.989212,66.488487 172.059402,74.341087 
	C177.692123,73.943985 182.540939,73.602150 187.767242,72.491882 
M33.564201,22.812773 
	C36.881405,24.172089 40.198605,25.531406 43.680573,26.958241 
	C45.407684,23.646082 47.053547,20.489735 48.667667,17.394260 
	C41.978645,12.616175 31.347229,10.116417 24.156551,11.456540 
	C15.166478,13.132015 8.986155,18.686563 7.859430,26.103531 
	C6.565902,34.618534 9.953512,40.863060 18.617029,45.546440 
	C22.264610,47.518276 26.491049,48.682693 29.632254,51.228504 
	C31.498867,52.741314 32.899956,56.480152 32.397213,58.750172 
	C31.983704,60.617290 28.628658,62.464539 26.257381,63.072281 
	C24.258699,63.584530 21.696384,62.570633 19.569725,61.749893 
	C16.518385,60.572281 13.636271,58.956177 10.496145,57.437424 
	C8.863079,61.107170 7.344635,64.519348 5.789741,68.013428 
	C14.696061,73.148315 23.579575,75.890785 33.428890,73.958305 
	C41.676544,72.340080 47.931786,65.812416 49.046970,57.825657 
	C50.349091,48.500053 47.331863,42.699501 38.756821,38.284615 
	C35.509781,36.612858 32.069176,35.298443 28.901672,33.496227 
	C25.935476,31.808546 22.951645,29.411777 24.299664,25.585135 
	C25.672844,21.687061 29.344910,21.888290 33.564201,22.812773 
M209.959854,107.655899 
	C211.409637,104.251587 212.859406,100.847282 214.309189,97.442970 
	C214.630280,97.507950 214.951385,97.572922 215.272476,97.637901 
	C215.272476,101.692238 215.272476,105.746574 215.272476,109.706558 
	C217.737152,109.706558 219.652390,109.706558 221.792191,109.706558 
	C221.207169,100.508476 220.643112,91.640114 220.094208,83.009796 
	C215.723862,81.620903 213.861038,83.195183 212.640732,86.824493 
	C210.927505,91.919777 208.673462,96.833214 206.445206,102.331558 
	C204.190247,96.734436 201.811249,91.776634 200.215912,86.578323 
	C198.871124,82.196480 196.399750,81.967857 192.591034,83.041565 
	C192.080811,92.135651 191.583450,101.000687 191.091019,109.777451 
	C193.488373,109.777451 195.258102,109.777451 197.191040,109.777451 
	C197.453079,105.767021 197.700180,101.985260 197.947281,98.203506 
	C199.974365,101.224403 201.248978,104.240799 202.552551,107.244621 
	C204.319687,111.316628 206.796402,111.141052 209.959854,107.655899 
M247.377838,108.086525 
	C247.774948,108.705177 248.175858,109.862579 248.568573,109.859795 
	C252.861664,109.829361 257.266876,110.171021 261.417999,109.320312 
	C267.072144,108.161583 269.940338,103.126472 269.845459,96.281738 
	C269.752380,89.567970 266.634003,84.228477 261.266632,83.191162 
	C256.839569,82.335564 252.199890,82.579811 247.370285,82.321480 
	C247.370285,91.228371 247.370285,99.189941 247.377838,108.086525 
M303.213623,93.191063 
	C302.250793,90.549103 301.547241,87.765923 300.217224,85.323967 
	C299.538849,84.078392 297.754303,82.761093 296.436066,82.725540 
	C295.085693,82.689125 292.929962,83.865440 292.443970,85.050949 
	C289.126099,93.144234 286.155334,101.379807 282.973083,109.833954 
	C285.386261,109.833954 287.486481,109.833954 289.430695,109.833954 
	C291.259796,107.463226 290.167816,103.702171 295.024567,103.245667 
	C300.711853,102.711098 301.454071,106.238670 302.548859,109.672997 
	C304.936737,109.672997 306.952362,109.672997 309.279663,109.672997 
	C307.266907,104.136589 305.405975,99.017784 303.213623,93.191063 
M243.852280,84.621094 
	C243.327087,83.946198 242.817841,82.700172 242.274231,82.684998 
	C236.995285,82.537605 231.710556,82.596413 226.425079,82.596413 
	C226.425079,91.993561 226.425079,100.878212 226.425079,109.793121 
	C232.492874,109.793121 238.254501,109.793121 244.001892,109.793121 
	C244.001892,108.154610 244.001892,106.759392 244.001892,104.873932 
	C240.177444,104.873932 236.613419,104.873932 233.245560,104.873932 
	C233.245560,102.423912 233.245560,100.480461 233.245560,98.216507 
	C235.930359,98.216507 238.372360,98.216507 241.036835,98.216507 
	C241.341431,96.523209 241.593918,95.119659 241.941284,93.188660 
	C238.777328,93.188660 236.041397,93.188660 233.231049,93.188660 
	C233.231049,91.133118 233.231049,89.547440 233.231049,87.644432 
	C235.922989,87.644432 238.411407,87.860878 240.830582,87.545738 
	C241.909698,87.405159 242.849564,86.195435 243.852280,84.621094 
M273.746429,106.113983 
	C273.830750,107.359734 273.915070,108.605484 273.996460,109.807587 
	C276.324097,109.807587 278.257874,109.807587 280.278503,109.807587 
	C280.278503,100.700943 280.278503,91.820351 280.278503,82.733643 
	C278.059906,82.733643 276.129059,82.733643 273.746490,82.733643 
	C273.746490,90.322655 273.746490,97.757248 273.746429,106.113983 
z"/>
<path fill="#FAFAFA" opacity="1.000000" stroke="none" 
	d="
M271.545349,56.419655 
	C277.465485,41.419003 283.154022,26.722527 288.814972,12.097213 
	C293.256805,12.097213 297.238159,12.097213 301.843384,12.097213 
	C303.056885,32.590622 304.270203,53.080971 305.496979,73.798752 
	C300.688965,73.798752 296.235260,73.798752 290.992920,73.798752 
	C290.992920,63.582382 290.992920,53.341225 290.992920,43.100067 
	C290.520447,43.008274 290.047974,42.916485 289.575531,42.824696 
	C288.053467,46.501595 286.540680,50.182373 285.006897,53.854378 
	C283.215088,58.144161 281.411346,62.428978 279.601410,66.711151 
	C276.431244,74.211426 276.427643,74.080536 268.236694,74.079788 
	C265.627319,74.079552 264.472839,73.179955 263.528656,70.837624 
	C259.641541,61.194214 255.544434,51.635460 250.741180,42.037819 
	C250.741180,52.542686 250.741180,63.047550 250.741180,73.778236 
	C245.566055,73.778236 241.132446,73.778236 236.231628,73.778236 
	C237.440689,53.266548 238.641235,32.899227 239.857300,12.268978 
	C244.248734,12.268978 248.502945,12.268978 253.174469,12.268978 
	C258.439056,25.705873 263.747742,39.307285 269.119019,52.883938 
	C269.655884,54.240929 270.573059,55.447468 271.545349,56.419655 
z"/>
<path fill="#FBFBFB" opacity="1.000000" stroke="none" 
	d="
M136.947739,11.876784 
	C148.954254,11.582152 159.350693,14.324430 164.848663,25.399641 
	C170.967758,37.726070 170.951187,50.531250 164.075592,62.721359 
	C160.090805,69.786209 153.127548,73.115822 145.415176,73.692802 
	C136.672791,74.346840 127.843826,73.843750 118.864136,73.843750 
	C118.864136,53.312836 118.864136,33.034531 118.864136,11.877625 
	C124.651810,11.877625 130.554596,11.877625 136.947739,11.876784 
M133.891403,34.508430 
	C133.891403,44.101883 133.891403,53.695339 133.891403,63.230770 
	C144.935257,63.944138 150.188766,61.196671 151.483795,52.861301 
	C152.437363,46.723637 152.469925,40.170589 151.423141,34.057751 
	C149.821793,24.706535 144.050659,21.511883 133.891403,23.174982 
	C133.891403,26.570553 133.891403,30.040380 133.891403,34.508430 
z"/>
<path fill="#F9F9F9" opacity="1.000000" stroke="none" 
	d="
M71.663879,30.001575 
	C71.732773,37.821796 71.570557,45.154213 71.942482,52.459431 
	C72.249229,58.484470 75.574348,61.936287 80.925285,62.770294 
	C86.264519,63.602478 90.570312,61.045036 91.963417,55.777988 
	C92.675835,53.084518 92.932297,50.205627 92.957680,47.406578 
	C93.063080,35.784492 93.001968,24.160900 93.001968,12.266873 
	C97.997826,12.266873 102.741623,12.266873 108.128639,12.266873 
	C108.128639,16.425076 108.138527,20.674976 108.126602,24.924814 
	C108.100922,34.077984 108.303703,43.239811 107.972412,52.382130 
	C107.536026,64.424919 99.898277,72.616882 87.933159,74.025589 
	C84.012451,74.487206 79.946899,74.511887 76.028702,74.049301 
	C65.258423,72.777756 57.679237,65.745636 57.101822,54.852757 
	C56.356155,40.785732 56.920105,26.649288 56.920105,12.267677 
	C61.520035,12.267677 66.275970,12.267677 71.663887,12.267677 
	C71.663887,17.960323 71.663887,23.731163 71.663879,30.001575 
z"/>
<path fill="#FBFBFB" opacity="1.000000" stroke="none" 
	d="
M187.578491,72.876099 
	C182.540939,73.602150 177.692123,73.943985 172.059402,74.341087 
	C174.989212,66.488487 177.556519,59.518742 180.188263,52.573418 
	C184.777527,40.462112 189.506744,28.402460 193.948029,16.237453 
	C195.053192,13.210358 196.234787,11.774380 199.832733,11.883511 
	C209.115112,12.165060 209.137329,11.931367 212.408920,20.845339 
	C218.301865,36.901672 224.179535,52.963627 230.047348,69.029167 
	C230.601379,70.546051 231.040039,72.105080 231.600403,73.857651 
	C226.360596,73.857651 221.565933,73.857651 216.532822,73.857651 
	C214.970566,68.939407 213.427094,64.080284 211.874008,59.190880 
	C205.208542,59.190880 198.733810,59.190880 191.971680,59.190880 
	C190.565155,63.640526 189.166199,68.066200 187.578491,72.876099 
M201.546234,47.937962 
	C203.658737,47.937962 205.771240,47.937962 208.471069,47.937962 
	C206.323807,41.339294 204.345810,35.260792 201.953461,27.908928 
	C199.563797,35.425205 197.636642,41.486748 195.585602,47.937962 
	C197.661606,47.937962 199.142212,47.937962 201.546234,47.937962 
z"/>
<path fill="#FAFAFA" opacity="1.000000" stroke="none" 
	d="
M33.180813,22.715832 
	C29.344910,21.888290 25.672844,21.687061 24.299664,25.585135 
	C22.951645,29.411777 25.935476,31.808546 28.901672,33.496227 
	C32.069176,35.298443 35.509781,36.612858 38.756821,38.284615 
	C47.331863,42.699501 50.349091,48.500053 49.046970,57.825657 
	C47.931786,65.812416 41.676544,72.340080 33.428890,73.958305 
	C23.579575,75.890785 14.696061,73.148315 5.789741,68.013428 
	C7.344635,64.519348 8.863079,61.107170 10.496145,57.437424 
	C13.636271,58.956177 16.518385,60.572281 19.569725,61.749893 
	C21.696384,62.570633 24.258699,63.584530 26.257381,63.072281 
	C28.628658,62.464539 31.983704,60.617290 32.397213,58.750172 
	C32.899956,56.480152 31.498867,52.741314 29.632254,51.228504 
	C26.491049,48.682693 22.264610,47.518276 18.617029,45.546440 
	C9.953512,40.863060 6.565902,34.618534 7.859430,26.103531 
	C8.986155,18.686563 15.166478,13.132015 24.156551,11.456540 
	C31.347229,10.116417 41.978645,12.616175 48.667667,17.394260 
	C47.053547,20.489735 45.407684,23.646082 43.680573,26.958241 
	C40.198605,25.531406 36.881405,24.172089 33.180813,22.715832 
z"/>
<path fill="#F3F3F3" opacity="1.000000" stroke="none" 
	d="
M209.819916,108.029236 
	C206.796402,111.141052 204.319687,111.316628 202.552551,107.244621 
	C201.248978,104.240799 199.974365,101.224403 197.947281,98.203506 
	C197.700180,101.985260 197.453079,105.767021 197.191040,109.777451 
	C195.258102,109.777451 193.488373,109.777451 191.091019,109.777451 
	C191.583450,101.000687 192.080811,92.135651 192.591034,83.041565 
	C196.399750,81.967857 198.871124,82.196480 200.215912,86.578323 
	C201.811249,91.776634 204.190247,96.734436 206.445206,102.331558 
	C208.673462,96.833214 210.927505,91.919777 212.640732,86.824493 
	C213.861038,83.195183 215.723862,81.620903 220.094208,83.009796 
	C220.643112,91.640114 221.207169,100.508476 221.792191,109.706558 
	C219.652390,109.706558 217.737152,109.706558 215.272476,109.706558 
	C215.272476,105.746574 215.272476,101.692238 215.272476,97.637901 
	C214.951385,97.572922 214.630280,97.507950 214.309189,97.442970 
	C212.859406,100.847282 211.409637,104.251587 209.819916,108.029236 
z"/>
<path fill="#F0F0F0" opacity="1.000000" stroke="none" 
	d="
M247.374054,107.619019 
	C247.370285,99.189941 247.370285,91.228371 247.370285,82.321480 
	C252.199890,82.579811 256.839569,82.335564 261.266632,83.191162 
	C266.634003,84.228477 269.752380,89.567970 269.845459,96.281738 
	C269.940338,103.126472 267.072144,108.161583 261.417999,109.320312 
	C257.266876,110.171021 252.861664,109.829361 248.568573,109.859795 
	C248.175858,109.862579 247.774948,108.705177 247.374054,107.619019 
M259.981171,88.634087 
	C258.228577,88.091469 256.475952,87.548851 254.459427,86.924522 
	C254.459427,93.489174 254.459427,99.219948 254.459427,104.977074 
	C259.651337,105.835724 262.180664,103.473595 262.139709,98.819214 
	C262.111481,95.606895 261.130005,92.402969 259.981171,88.634087 
z"/>
<path fill="#F0F0F0" opacity="1.000000" stroke="none" 
	d="
M303.379333,93.545013 
	C305.405975,99.017784 307.266907,104.136589 309.279663,109.672997 
	C306.952362,109.672997 304.936737,109.672997 302.548859,109.672997 
	C301.454071,106.238670 300.711853,102.711098 295.024567,103.245667 
	C290.167816,103.702171 291.259796,107.463226 289.430695,109.833954 
	C287.486481,109.833954 285.386261,109.833954 282.973083,109.833954 
	C286.155334,101.379807 289.126099,93.144234 292.443970,85.050949 
	C292.929962,83.865440 295.085693,82.689125 296.436066,82.725540 
	C297.754303,82.761093 299.538849,84.078392 300.217224,85.323967 
	C301.547241,87.765923 302.250793,90.549103 303.379333,93.545013 
z"/>
<path fill="#F2F2F2" opacity="1.000000" stroke="none" 
	d="
M243.852448,85.046021 
	C242.849564,86.195435 241.909698,87.405159 240.830582,87.545738 
	C238.411407,87.860878 235.922989,87.644432 233.231049,87.644432 
	C233.231049,89.547440 233.231049,91.133118 233.231049,93.188660 
	C236.041397,93.188660 238.777328,93.188660 241.941284,93.188660 
	C241.593918,95.119659 241.341431,96.523209 241.036835,98.216507 
	C238.372360,98.216507 235.930359,98.216507 233.245560,98.216507 
	C233.245560,100.480461 233.245560,102.423912 233.245560,104.873932 
	C236.613419,104.873932 240.177444,104.873932 244.001892,104.873932 
	C244.001892,106.759392 244.001892,108.154610 244.001892,109.793121 
	C238.254501,109.793121 232.492874,109.793121 226.425079,109.793121 
	C226.425079,100.878212 226.425079,91.993561 226.425079,82.596413 
	C231.710556,82.596413 236.995285,82.537605 242.274231,82.684998 
	C242.817841,82.700172 243.327087,83.946198 243.852448,85.046021 
z"/>
<path fill="#EDEDED" opacity="1.000000" stroke="none" 
	d="
M273.746460,105.652908 
	C273.746490,97.757248 273.746490,90.322655 273.746490,82.733643 
	C276.129059,82.733643 278.059906,82.733643 280.278503,82.733643 
	C280.278503,91.820351 280.278503,100.700943 280.278503,109.807587 
	C278.257874,109.807587 276.324097,109.807587 273.996460,109.807587 
	C273.915070,108.605484 273.830750,107.359734 273.746460,105.652908 
z"/>
<path fill="#020202" opacity="1.000000" stroke="none" 
	d="
M133.891403,34.009319 
	C133.891403,30.040380 133.891403,26.570553 133.891403,23.174982 
	C144.050659,21.511883 149.821793,24.706535 151.423141,34.057751 
	C152.469925,40.170589 152.437363,46.723637 151.483795,52.861301 
	C150.188766,61.196671 144.935257,63.944138 133.891403,63.230770 
	C133.891403,53.695339 133.891403,44.101883 133.891403,34.009319 
z"/>
<path fill="#0C0C0C" opacity="1.000000" stroke="none" 
	d="
M201.084518,47.937962 
	C199.142212,47.937962 197.661606,47.937962 195.585602,47.937962 
	C197.636642,41.486748 199.563797,35.425205 201.953461,27.908928 
	C204.345810,35.260792 206.323807,41.339294 208.471069,47.937962 
	C205.771240,47.937962 203.658737,47.937962 201.084518,47.937962 
z"/>
<path fill="#0E0E0E" opacity="1.000000" stroke="none" 
	d="
M260.277832,88.914688 
	C261.130005,92.402969 262.111481,95.606895 262.139709,98.819214 
	C262.180664,103.473595 259.651337,105.835724 254.459427,104.977074 
	C254.459427,99.219948 254.459427,93.489174 254.459427,86.924522 
	C256.475952,87.548851 258.228577,88.091469 260.277832,88.914688 
z"/>
</svg>