<svg version="1.1" id="Layer_1" xmlns="http://www.w3.org/2000/svg" xmlns:xlink="http://www.w3.org/1999/xlink" x="0px" y="0px"
	 width="100%" viewBox="0 0 500 500" enable-background="new 0 0 500 500" xml:space="preserve">
<path fill="#000000" opacity="1.000000" stroke="none" 
	d="
M267.000000,501.000000 
	C178.000015,501.000000 89.500046,501.000000 1.000047,501.000000 
	C1.000032,334.333405 1.000032,167.666794 1.000016,1.000137 
	C167.666565,1.000091 334.333130,1.000091 500.999756,1.000046 
	C500.999847,167.666519 500.999847,334.333038 500.999939,500.999786 
	C423.166656,501.000000 345.333344,501.000000 267.000000,501.000000 
M388.375336,296.980560 
	C388.375336,281.930664 388.375336,266.880768 388.375336,251.830856 
	C388.909271,251.776062 389.443207,251.721252 389.977142,251.666443 
	C390.616821,253.102997 391.297852,254.522736 391.889618,255.978775 
	C396.266022,266.747284 400.522125,277.566010 405.016235,288.285004 
	C409.988190,300.143707 410.081085,300.023895 422.999481,300.067810 
	C425.829590,300.077423 427.405670,299.458771 428.550781,296.584869 
	C434.145355,282.544189 440.005188,268.609131 445.787506,254.643494 
	C446.217285,253.605469 446.775208,252.620483 447.273560,251.610840 
	C447.670685,251.706955 448.067810,251.803070 448.464935,251.899185 
	C448.464935,267.846344 448.464935,283.793488 448.464935,299.730957 
	C455.964020,299.730957 462.730865,299.730957 469.727112,299.730957 
	C467.923737,269.289612 466.137390,239.135818 464.336182,208.730652 
	C458.539917,208.730652 453.379730,208.539429 448.251373,208.858948 
	C446.891418,208.943665 444.929688,210.318726 444.426697,211.574814 
	C436.216217,232.078522 428.198761,252.659515 420.123108,273.217316 
	C419.756592,274.150360 419.251221,275.028870 418.952728,275.641083 
	C410.371552,254.070648 401.865692,232.612289 393.228088,211.207108 
	C392.799805,210.145813 391.252838,208.888779 390.179413,208.843430 
	C384.581207,208.606842 378.967621,208.733078 373.104919,208.733078 
	C371.295868,239.415405 369.518311,269.563293 367.723541,300.003510 
	C374.222900,300.003510 380.034454,300.088318 385.837982,299.909882 
	C386.685974,299.883820 387.495392,298.603058 388.375336,296.980560 
M194.572891,269.499634 
	C194.572891,279.597687 194.572891,289.695740 194.572891,300.240143 
	C204.282761,300.240143 213.428360,300.263855 222.573730,300.226654 
	C225.567627,300.214417 228.568390,300.147064 231.553192,299.929108 
	C250.699326,298.530975 263.247253,287.612488 267.283356,268.827576 
	C269.378204,259.077850 269.190399,249.311050 266.944489,239.624344 
	C263.055542,222.851135 252.698212,211.731216 235.674820,209.627548 
	C222.297134,207.974411 208.551895,209.295715 194.572922,209.295715 
	C194.572922,228.960175 194.572922,248.729889 194.572891,269.499634 
M179.042465,221.506073 
	C179.042465,217.378693 179.042465,213.251312 179.042465,209.070831 
	C171.427582,209.070831 164.234543,209.070831 156.836670,209.070831 
	C156.836670,225.714325 156.883102,242.021683 156.803406,258.328430 
	C156.783936,262.311523 156.632751,266.334320 156.050629,270.266083 
	C154.769333,278.920013 149.747894,283.530212 141.956039,283.662506 
	C133.182251,283.811462 127.545830,279.250397 125.934341,270.434540 
	C125.398956,267.505554 125.156975,264.485199 125.143188,261.504944 
	C125.068398,245.347015 125.113403,229.188553 125.095734,213.030304 
	C125.094193,211.618454 124.937782,210.206772 124.859222,208.893860 
	C117.382256,208.893860 110.423538,208.893860 103.222862,208.893860 
	C103.140701,209.826584 103.009720,210.621475 103.009605,211.416382 
	C103.007057,229.573532 102.855392,247.732651 103.071747,265.887329 
	C103.309586,285.844574 114.033691,298.168488 133.863785,300.453369 
	C156.649033,303.078705 180.108170,294.299530 179.107178,261.483002 
	C178.711227,248.501846 179.042374,235.498489 179.042465,221.506073 
M301.771576,225.165588 
	C292.339020,249.951385 282.906494,274.737183 273.353699,299.838928 
	C281.147522,299.838928 288.270386,299.838928 295.539459,299.838928 
	C297.900452,292.541840 300.228394,285.346924 302.552155,278.164917 
	C312.539734,278.164917 322.163971,278.164917 331.938080,278.164917 
	C334.230865,285.496216 336.496735,292.741547 338.674225,299.704193 
	C346.400177,299.704193 353.612701,299.704193 361.190887,299.704193 
	C350.336609,270.024933 339.654541,240.718414 328.798676,211.476440 
	C328.344666,210.253433 326.289337,208.895462 324.945953,208.859146 
	C319.332428,208.707367 312.667938,207.257797 308.407532,209.743790 
	C304.900848,211.789948 304.238678,218.712311 302.320129,223.475311 
	C302.196289,223.782791 302.109253,224.105087 301.771576,225.165588 
M48.431606,209.820206 
	C38.761627,213.695969 32.267395,220.301697 31.064875,230.992844 
	C29.765335,242.546539 34.986984,250.937729 44.684120,256.702118 
	C48.237736,258.814575 52.140358,260.333557 55.844723,262.200775 
	C58.804043,263.692444 61.831776,265.105164 64.600761,266.904419 
	C68.785095,269.623352 68.785187,273.926270 67.770683,278.094391 
	C66.792885,282.111603 63.709694,284.221863 59.635708,284.131927 
	C56.534184,284.063416 53.247280,283.823517 50.399017,282.731171 
	C45.310410,280.779633 40.490520,278.127411 35.272934,275.631653 
	C33.002987,280.580536 30.677261,285.651062 28.386284,290.645813 
	C39.106079,299.081635 58.352112,303.044464 70.719223,299.523804 
	C83.038391,296.016754 91.082222,286.534607 92.188477,274.215546 
	C93.370224,261.055817 88.767105,253.331604 75.830711,246.946884 
	C71.514862,244.816818 66.999306,243.065643 62.791847,240.747696 
	C56.496136,237.279327 53.715858,232.134933 55.489849,228.100983 
	C57.273438,224.045212 62.972103,222.481079 69.720757,224.770081 
	C74.514236,226.395935 79.071609,228.717880 83.969566,230.830597 
	C86.494942,225.989471 88.988548,221.209244 91.680923,216.047958 
	C77.937286,208.474976 64.162392,205.103729 48.431606,209.820206 
M322.024872,352.007507 
	C323.046173,350.686890 324.355164,349.498871 325.036194,348.021423 
	C327.304657,343.099915 329.347809,338.074554 331.477295,333.089020 
	C331.888306,333.187103 332.299316,333.285187 332.710327,333.383301 
	C332.710327,339.483063 332.710327,345.582825 332.710327,351.693817 
	C336.192841,351.693817 339.082733,351.693817 342.232391,351.693817 
	C341.421387,338.295898 340.630768,325.234436 339.844208,312.240692 
	C331.692749,311.376282 331.706970,311.381958 328.845123,318.525970 
	C325.920898,325.825653 322.964874,333.112549 319.777954,341.011871 
	C316.583588,332.917877 313.729462,325.663239 310.857666,318.415649 
	C308.044373,311.315613 308.036469,311.318756 299.602722,312.250244 
	C298.839661,325.350677 298.072021,338.529968 297.300293,351.779083 
	C300.571533,351.779083 303.330322,351.779083 306.771851,351.779083 
	C306.771851,345.225464 306.771851,338.892273 306.771851,332.559082 
	C308.692841,334.880310 309.635437,337.289948 310.629211,339.678284 
	C311.649078,342.129333 313.006775,344.480804 313.700897,347.016998 
	C314.798096,351.025696 317.027588,352.839569 322.024872,352.007507 
M393.336914,352.109039 
	C403.396332,351.722748 409.662476,348.512970 411.218536,340.943085 
	C412.405396,335.169098 412.085419,328.790405 411.032898,322.932800 
	C409.948944,316.900055 404.977448,313.129578 399.050507,312.379181 
	C392.912628,311.602112 386.599945,312.206238 380.302124,312.206238 
	C380.302124,325.510803 380.302124,338.566528 380.302124,352.110291 
	C384.473267,352.110291 388.427521,352.110291 393.336914,352.109039 
M456.233276,312.806000 
	C453.254791,312.374054 450.276276,311.942108 447.251160,311.503387 
	C442.030121,325.262299 437.039337,338.414520 431.942657,351.845703 
	C435.458191,351.845703 438.569031,351.845703 441.619019,351.845703 
	C445.157532,342.395752 445.157532,342.395782 448.834717,342.344666 
	C456.939209,342.232056 456.939209,342.232025 460.935364,351.736755 
	C463.971832,351.736755 467.020294,351.736755 470.533081,351.736755 
	C465.806854,338.739136 461.223663,326.134918 456.233276,312.806000 
M366.512787,344.843231 
	C364.068939,344.843231 361.625122,344.843231 359.131287,344.843231 
	C359.131287,341.232666 359.131287,338.162903 359.131287,334.678009 
	C363.155212,334.678009 366.906403,334.678009 370.713867,334.678009 
	C371.091248,332.180542 371.405731,330.099365 371.796783,327.511536 
	C367.342224,327.511536 363.269806,327.511536 359.109741,327.511536 
	C359.109741,324.475250 359.109741,321.907440 359.109741,318.788086 
	C364.394775,318.788086 369.432404,318.788086 374.390106,318.788086 
	C374.390106,316.275116 374.390106,314.328796 374.390106,312.169525 
	C365.833954,312.169525 357.486908,312.169525 349.160339,312.169525 
	C349.160339,325.546326 349.160339,338.608521 349.160339,351.743164 
	C357.941925,351.743164 366.485809,351.743164 375.109009,351.743164 
	C375.109009,349.373749 375.109009,347.271057 375.109009,344.843231 
	C372.415253,344.843231 369.941620,344.843231 366.512787,344.843231 
M427.072296,311.877136 
	C424.284882,311.877136 421.497437,311.877136 418.490234,311.877136 
	C418.490234,325.403687 418.490234,338.482666 418.490234,351.789642 
	C421.779663,351.789642 424.858521,351.789642 428.218567,351.789642 
	C428.218567,339.802643 428.228302,327.987396 428.204926,316.172272 
	C428.202332,314.853821 428.011902,313.535797 427.072296,311.877136 
z"/>
<path fill="#FCFCFC" opacity="1.000000" stroke="none" 
	d="
M388.348999,297.441711 
	C387.495392,298.603058 386.685974,299.883820 385.837982,299.909882 
	C380.034454,300.088318 374.222900,300.003510 367.723541,300.003510 
	C369.518311,269.563293 371.295868,239.415405 373.104919,208.733078 
	C378.967621,208.733078 384.581207,208.606842 390.179413,208.843430 
	C391.252838,208.888779 392.799805,210.145813 393.228088,211.207108 
	C401.865692,232.612289 410.371552,254.070648 418.952728,275.641083 
	C419.251221,275.028870 419.756592,274.150360 420.123108,273.217316 
	C428.198761,252.659515 436.216217,232.078522 444.426697,211.574814 
	C444.929688,210.318726 446.891418,208.943665 448.251373,208.858948 
	C453.379730,208.539429 458.539917,208.730652 464.336182,208.730652 
	C466.137390,239.135818 467.923737,269.289612 469.727112,299.730957 
	C462.730865,299.730957 455.964020,299.730957 448.464935,299.730957 
	C448.464935,283.793488 448.464935,267.846344 448.464935,251.899185 
	C448.067810,251.803070 447.670685,251.706955 447.273560,251.610840 
	C446.775208,252.620483 446.217285,253.605469 445.787506,254.643494 
	C440.005188,268.609131 434.145355,282.544189 428.550781,296.584869 
	C427.405670,299.458771 425.829590,300.077423 422.999481,300.067810 
	C410.081085,300.023895 409.988190,300.143707 405.016235,288.285004 
	C400.522125,277.566010 396.266022,266.747284 391.889618,255.978775 
	C391.297852,254.522736 390.616821,253.102997 389.977142,251.666443 
	C389.443207,251.721252 388.909271,251.776062 388.375336,251.830856 
	C388.375336,266.880768 388.375336,281.930664 388.348999,297.441711 
z"/>
<path fill="#FCFCFC" opacity="1.000000" stroke="none" 
	d="
M194.572906,268.999634 
	C194.572922,248.729889 194.572922,228.960175 194.572922,209.295715 
	C208.551895,209.295715 222.297134,207.974411 235.674820,209.627548 
	C252.698212,211.731216 263.055542,222.851135 266.944489,239.624344 
	C269.190399,249.311050 269.378204,259.077850 267.283356,268.827576 
	C263.247253,287.612488 250.699326,298.530975 231.553192,299.929108 
	C228.568390,300.147064 225.567627,300.214417 222.573730,300.226654 
	C213.428360,300.263855 204.282761,300.240143 194.572891,300.240143 
	C194.572891,289.695740 194.572891,279.597687 194.572906,268.999634 
M216.933319,275.433899 
	C216.933319,278.360718 216.933319,281.287567 216.933319,284.102753 
	C233.030563,286.157684 241.473953,280.958191 243.472183,266.656342 
	C244.581482,258.716827 244.427902,250.298599 243.104645,242.386963 
	C240.654602,227.738159 232.236786,222.436874 216.933319,224.706390 
	C216.933319,241.238022 216.933319,257.843475 216.933319,275.433899 
z"/>
<path fill="#FDFDFD" opacity="1.000000" stroke="none" 
	d="
M179.042465,222.005661 
	C179.042374,235.498489 178.711227,248.501846 179.107178,261.483002 
	C180.108170,294.299530 156.649033,303.078705 133.863785,300.453369 
	C114.033691,298.168488 103.309586,285.844574 103.071747,265.887329 
	C102.855392,247.732651 103.007057,229.573532 103.009605,211.416382 
	C103.009720,210.621475 103.140701,209.826584 103.222862,208.893860 
	C110.423538,208.893860 117.382256,208.893860 124.859222,208.893860 
	C124.937782,210.206772 125.094193,211.618454 125.095734,213.030304 
	C125.113403,229.188553 125.068398,245.347015 125.143188,261.504944 
	C125.156975,264.485199 125.398956,267.505554 125.934341,270.434540 
	C127.545830,279.250397 133.182251,283.811462 141.956039,283.662506 
	C149.747894,283.530212 154.769333,278.920013 156.050629,270.266083 
	C156.632751,266.334320 156.783936,262.311523 156.803406,258.328430 
	C156.883102,242.021683 156.836670,225.714325 156.836670,209.070831 
	C164.234543,209.070831 171.427582,209.070831 179.042465,209.070831 
	C179.042465,213.251312 179.042465,217.378693 179.042465,222.005661 
z"/>
<path fill="#FCFCFC" opacity="1.000000" stroke="none" 
	d="
M301.888336,224.793030 
	C302.109253,224.105087 302.196289,223.782791 302.320129,223.475311 
	C304.238678,218.712311 304.900848,211.789948 308.407532,209.743790 
	C312.667938,207.257797 319.332428,208.707367 324.945953,208.859146 
	C326.289337,208.895462 328.344666,210.253433 328.798676,211.476440 
	C339.654541,240.718414 350.336609,270.024933 361.190887,299.704193 
	C353.612701,299.704193 346.400177,299.704193 338.674225,299.704193 
	C336.496735,292.741547 334.230865,285.496216 331.938080,278.164917 
	C322.163971,278.164917 312.539734,278.164917 302.552155,278.164917 
	C300.228394,285.346924 297.900452,292.541840 295.539459,299.838928 
	C288.270386,299.838928 281.147522,299.838928 273.353699,299.838928 
	C282.906494,274.737183 292.339020,249.951385 301.888336,224.793030 
M314.749207,240.152771 
	C312.461151,247.166077 310.173096,254.179398 307.817627,261.399261 
	C314.412323,261.399261 320.360138,261.399261 326.794708,261.399261 
	C323.677582,251.662277 320.657349,242.227921 317.343201,231.875381 
	C316.337524,235.005096 315.632721,237.198532 314.749207,240.152771 
z"/>
<path fill="#FBFBFB" opacity="1.000000" stroke="none" 
	d="
M48.788567,209.655365 
	C64.162392,205.103729 77.937286,208.474976 91.680923,216.047958 
	C88.988548,221.209244 86.494942,225.989471 83.969566,230.830597 
	C79.071609,228.717880 74.514236,226.395935 69.720757,224.770081 
	C62.972103,222.481079 57.273438,224.045212 55.489849,228.100983 
	C53.715858,232.134933 56.496136,237.279327 62.791847,240.747696 
	C66.999306,243.065643 71.514862,244.816818 75.830711,246.946884 
	C88.767105,253.331604 93.370224,261.055817 92.188477,274.215546 
	C91.082222,286.534607 83.038391,296.016754 70.719223,299.523804 
	C58.352112,303.044464 39.106079,299.081635 28.386284,290.645813 
	C30.677261,285.651062 33.002987,280.580536 35.272934,275.631653 
	C40.490520,278.127411 45.310410,280.779633 50.399017,282.731171 
	C53.247280,283.823517 56.534184,284.063416 59.635708,284.131927 
	C63.709694,284.221863 66.792885,282.111603 67.770683,278.094391 
	C68.785187,273.926270 68.785095,269.623352 64.600761,266.904419 
	C61.831776,265.105164 58.804043,263.692444 55.844723,262.200775 
	C52.140358,260.333557 48.237736,258.814575 44.684120,256.702118 
	C34.986984,250.937729 29.765335,242.546539 31.064875,230.992844 
	C32.267395,220.301697 38.761627,213.695969 48.788567,209.655365 
z"/>
<path fill="#F7F7F7" opacity="1.000000" stroke="none" 
	d="
M321.606934,352.010742 
	C317.027588,352.839569 314.798096,351.025696 313.700897,347.016998 
	C313.006775,344.480804 311.649078,342.129333 310.629211,339.678284 
	C309.635437,337.289948 308.692841,334.880310 306.771851,332.559082 
	C306.771851,338.892273 306.771851,345.225464 306.771851,351.779083 
	C303.330322,351.779083 300.571533,351.779083 297.300293,351.779083 
	C298.072021,338.529968 298.839661,325.350677 299.602722,312.250244 
	C308.036469,311.318756 308.044373,311.315613 310.857666,318.415649 
	C313.729462,325.663239 316.583588,332.917877 319.777954,341.011871 
	C322.964874,333.112549 325.920898,325.825653 328.845123,318.525970 
	C331.706970,311.381958 331.692749,311.376282 339.844208,312.240692 
	C340.630768,325.234436 341.421387,338.295898 342.232391,351.693817 
	C339.082733,351.693817 336.192841,351.693817 332.710327,351.693817 
	C332.710327,345.582825 332.710327,339.483063 332.710327,333.383301 
	C332.299316,333.285187 331.888306,333.187103 331.477295,333.089020 
	C329.347809,338.074554 327.304657,343.099915 325.036194,348.021423 
	C324.355164,349.498871 323.046173,350.686890 321.606934,352.010742 
z"/>
<path fill="#F9F9F9" opacity="1.000000" stroke="none" 
	d="
M392.859344,352.109680 
	C388.427521,352.110291 384.473267,352.110291 380.302124,352.110291 
	C380.302124,338.566528 380.302124,325.510803 380.302124,312.206238 
	C386.599945,312.206238 392.912628,311.602112 399.050507,312.379181 
	C404.977448,313.129578 409.948944,316.900055 411.032898,322.932800 
	C412.085419,328.790405 412.405396,335.169098 411.218536,340.943085 
	C409.662476,348.512970 403.396332,351.722748 392.859344,352.109680 
M401.971893,328.924042 
	C400.215210,320.113068 398.034729,318.293579 390.249329,319.209259 
	C390.249329,327.799133 390.249329,336.395081 390.249329,344.980957 
	C398.687866,345.197601 401.672241,342.443909 402.027924,334.301300 
	C402.093292,332.805206 402.026947,331.303375 401.971893,328.924042 
z"/>
<path fill="#F8F8F8" opacity="1.000000" stroke="none" 
	d="
M456.436890,313.168335 
	C461.223663,326.134918 465.806854,338.739136 470.533081,351.736755 
	C467.020294,351.736755 463.971832,351.736755 460.935364,351.736755 
	C456.939209,342.232025 456.939209,342.232056 448.834717,342.344666 
	C445.157532,342.395782 445.157532,342.395752 441.619019,351.845703 
	C438.569031,351.845703 435.458191,351.845703 431.942657,351.845703 
	C437.039337,338.414520 442.030121,325.262299 447.251160,311.503387 
	C450.276276,311.942108 453.254791,312.374054 456.436890,313.168335 
M454.548828,332.236084 
	C453.573242,329.292023 452.597656,326.347931 451.259064,322.308350 
	C449.689758,327.196533 448.485352,330.948059 447.280914,334.699615 
	C449.969330,333.443756 453.639954,337.871735 454.548828,332.236084 
z"/>
<path fill="#FBFBFB" opacity="1.000000" stroke="none" 
	d="
M366.990356,344.843231 
	C369.941620,344.843231 372.415253,344.843231 375.109009,344.843231 
	C375.109009,347.271057 375.109009,349.373749 375.109009,351.743164 
	C366.485809,351.743164 357.941925,351.743164 349.160339,351.743164 
	C349.160339,338.608521 349.160339,325.546326 349.160339,312.169525 
	C357.486908,312.169525 365.833954,312.169525 374.390106,312.169525 
	C374.390106,314.328796 374.390106,316.275116 374.390106,318.788086 
	C369.432404,318.788086 364.394775,318.788086 359.109741,318.788086 
	C359.109741,321.907440 359.109741,324.475250 359.109741,327.511536 
	C363.269806,327.511536 367.342224,327.511536 371.796783,327.511536 
	C371.405731,330.099365 371.091248,332.180542 370.713867,334.678009 
	C366.906403,334.678009 363.155212,334.678009 359.131287,334.678009 
	C359.131287,338.162903 359.131287,341.232666 359.131287,344.843231 
	C361.625122,344.843231 364.068939,344.843231 366.990356,344.843231 
z"/>
<path fill="#F6F6F6" opacity="1.000000" stroke="none" 
	d="
M427.490417,312.047363 
	C428.011902,313.535797 428.202332,314.853821 428.204926,316.172272 
	C428.228302,327.987396 428.218567,339.802643 428.218567,351.789642 
	C424.858521,351.789642 421.779663,351.789642 418.490234,351.789642 
	C418.490234,338.482666 418.490234,325.403687 418.490234,311.877136 
	C421.497437,311.877136 424.284882,311.877136 427.490417,312.047363 
z"/>
<path fill="#030303" opacity="1.000000" stroke="none" 
	d="
M216.933319,274.941406 
	C216.933319,257.843475 216.933319,241.238022 216.933319,224.706390 
	C232.236786,222.436874 240.654602,227.738159 243.104645,242.386963 
	C244.427902,250.298599 244.581482,258.716827 243.472183,266.656342 
	C241.473953,280.958191 233.030563,286.157684 216.933319,284.102753 
	C216.933319,281.287567 216.933319,278.360718 216.933319,274.941406 
z"/>
<path fill="#0F0F0F" opacity="1.000000" stroke="none" 
	d="
M314.838562,239.772369 
	C315.632721,237.198532 316.337524,235.005096 317.343201,231.875381 
	C320.657349,242.227921 323.677582,251.662277 326.794708,261.399261 
	C320.360138,261.399261 314.412323,261.399261 307.817627,261.399261 
	C310.173096,254.179398 312.461151,247.166077 314.838562,239.772369 
z"/>
<path fill="#030303" opacity="1.000000" stroke="none" 
	d="
M401.996643,329.364105 
	C402.026947,331.303375 402.093292,332.805206 402.027924,334.301300 
	C401.672241,342.443909 398.687866,345.197601 390.249329,344.980957 
	C390.249329,336.395081 390.249329,327.799133 390.249329,319.209259 
	C398.034729,318.293579 400.215210,320.113068 401.996643,329.364105 
z"/>
<path fill="#0D0D0D" opacity="1.000000" stroke="none" 
	d="
M454.704712,332.627747 
	C453.639954,337.871735 449.969330,333.443756 447.280914,334.699615 
	C448.485352,330.948059 449.689758,327.196533 451.259064,322.308350 
	C452.597656,326.347931 453.573242,329.292023 454.704712,332.627747 
z"/>
</svg>