<?xml version="1.0" standalone="no"?>
<!DOCTYPE svg PUBLIC "-//W3C//DTD SVG 20010904//EN"
 "http://www.w3.org/TR/2001/REC-SVG-20010904/DTD/svg10.dtd">
<svg version="1.0" xmlns="http://www.w3.org/2000/svg"
 width="316.000000pt" height="123.000000pt" viewBox="0 0 316.000000 123.000000"
 preserveAspectRatio="xMidYMid meet">
<metadata>
Created by potrace 1.16, written by Peter Selinger 2001-2019
</metadata>
<g transform="translate(0.000000,123.000000) scale(0.100000,-0.100000)"
fill="#000000" stroke="none">
<path d="M0 615 l0 -615 1580 0 1580 0 0 615 0 615 -1580 0 -1580 0 0 -615z
m352 504 c29 -6 70 -20 91 -30 l37 -19 -20 -38 c-35 -67 -33 -66 -77 -44 -63
33 -105 37 -133 14 -21 -17 -23 -24 -15 -48 8 -23 32 -40 105 -80 123 -65 143
-92 138 -185 -3 -51 -10 -75 -30 -106 -56 -84 -183 -110 -313 -64 -86 31 -91
38 -64 94 13 26 27 47 31 47 5 0 31 -11 58 -25 85 -43 160 -27 160 35 0 39
-18 56 -91 89 -119 54 -159 102 -159 193 0 129 121 201 282 167z m358 -219 l0
-220 28 -30 c34 -39 90 -50 128 -25 47 31 54 66 54 290 l0 205 75 0 75 0 0
-222 c0 -213 -1 -225 -24 -273 -28 -60 -46 -77 -111 -106 -68 -30 -181 -31
-246 -2 -56 25 -85 54 -112 113 -19 40 -22 68 -25 268 l-4 222 81 0 81 0 0
-220z m829 184 c67 -38 106 -91 127 -174 33 -131 1 -274 -77 -344 -56 -51
-118 -66 -276 -66 l-133 0 0 311 0 311 153 -4 c148 -3 153 -4 206 -34z m633
-209 c48 -132 99 -270 113 -307 l25 -68 -78 0 -78 0 -22 75 -22 75 -99 0 -99
0 -24 -72 -25 -73 -76 -3 -76 -3 22 59 c12 32 65 172 117 310 l95 252 69 -2
70 -3 88 -240z m434 30 c46 -116 84 -216 84 -222 0 -7 5 -13 10 -13 6 0 10 6
10 13 0 6 38 106 84 222 l84 210 66 3 66 3 1 -38 c0 -21 8 -161 17 -311 l17
-272 -72 0 -73 0 -2 98 c-2 53 -1 128 0 167 2 38 0 67 -3 63 -6 -6 -102 -233
-127 -300 -9 -26 -14 -28 -69 -28 l-60 0 -21 48 c-11 26 -42 101 -69 167 l-48
120 -1 -115 c0 -63 -3 -139 -6 -167 l-7 -53 -69 0 -69 0 6 58 c3 31 10 143 15
247 6 105 13 218 16 253 l6 63 65 -3 65 -3 84 -210z m23 -509 c59 -31 78 -145
33 -206 -28 -38 -60 -50 -134 -50 l-68 0 0 134 c0 131 1 135 23 139 37 9 114
-1 146 -17z m-615 -82 c21 -52 40 -94 41 -92 2 2 20 45 40 96 35 86 39 92 65
92 31 0 31 2 44 -197 l5 -73 -34 0 -34 0 -3 67 -3 67 -26 -64 c-24 -58 -30
-65 -55 -65 -25 0 -31 7 -56 65 -23 55 -27 60 -28 35 0 -16 -3 -47 -6 -68 -6
-33 -10 -37 -35 -37 l-29 0 5 113 c8 153 10 157 44 157 26 0 30 -6 65 -96z
m414 74 c-3 -20 -10 -23 -55 -26 -49 -3 -53 -5 -53 -28 0 -22 4 -24 45 -24 45
0 50 -5 39 -34 -4 -11 -19 -16 -45 -16 -38 0 -39 -1 -39 -35 l0 -35 55 0 c52
0 55 -1 55 -25 0 -25 -1 -25 -90 -25 l-90 0 0 135 0 135 91 0 c88 0 90 -1 87
-22z m372 -113 l0 -135 -35 0 -35 0 0 135 0 135 35 0 35 0 0 -135z m230 13
c24 -68 45 -129 48 -135 3 -9 -7 -13 -30 -13 -31 0 -36 4 -44 33 -9 30 -13 32
-54 32 -41 0 -45 -2 -54 -32 -8 -29 -13 -33 -42 -33 -19 0 -34 1 -34 3 0 1 23
61 50 132 28 71 50 131 50 132 0 2 15 3 33 3 l33 0 44 -122z"/>
<path d="M1330 810 l0 -200 45 0 c99 0 137 55 137 195 0 140 -42 205 -133 205
l-49 0 0 -200z"/>
</g>
</svg>
