<svg version="1.1" id="Layer_1" xmlns="http://www.w3.org/2000/svg" xmlns:xlink="http://www.w3.org/1999/xlink" x="0px" y="0px"
	 width="100%" viewBox="0 0 500 500" enable-background="new 0 0 500 500" xml:space="preserve">
<path fill="#FFFFFF" opacity="1.000000" stroke="none" 
	d="
M456.000000,501.000000 
	C304.000031,501.000000 152.500076,501.000000 1.000081,501.000000 
	C1.000054,334.333405 1.000054,167.666824 1.000027,1.000171 
	C167.666550,1.000114 334.333099,1.000114 500.999756,1.000057 
	C500.999817,167.666519 500.999817,334.333038 500.999908,500.999756 
	C486.166656,501.000000 471.333344,501.000000 456.000000,501.000000 
M356.455872,279.155365 
	C357.335846,281.103668 358.215851,283.051971 359.099457,285.008301 
	C361.196259,285.008301 363.070709,284.747772 364.844421,285.059753 
	C369.232788,285.831665 371.271149,283.938690 372.744568,279.867493 
	C375.622833,271.914490 379.072266,264.167419 382.323669,256.351074 
	C382.696777,255.454071 383.314697,254.658905 383.819122,253.816513 
	C384.213531,253.897247 384.607971,253.977966 385.002380,254.058685 
	C385.002380,264.295776 385.002380,274.532837 385.002380,284.760834 
	C390.185944,284.760834 394.606415,284.760834 399.404114,284.760834 
	C398.191040,264.131226 396.993805,243.770813 395.773773,223.022400 
	C392.966949,223.022400 390.464630,223.305008 388.053223,222.957230 
	C384.282013,222.413330 382.458984,223.857025 381.172028,227.411194 
	C378.178162,235.679382 374.737854,243.785629 371.495636,251.964294 
	C369.404388,257.239594 367.343658,262.527008 364.999756,268.495148 
	C358.752747,252.776962 352.836029,237.889862 347.003845,223.215454 
	C342.409790,223.215454 338.275360,223.215454 333.921661,223.215454 
	C332.707520,243.771988 331.503998,264.148865 330.285614,284.777283 
	C335.082916,284.777283 339.509033,284.777283 344.785919,284.777283 
	C344.785919,274.175201 344.785919,263.723206 344.785919,253.271210 
	C345.098877,253.272186 345.411835,253.273163 345.724792,253.274139 
	C349.190704,261.667877 352.656616,270.061615 356.455872,279.155365 
M220.590790,222.971603 
	C218.106918,222.971603 215.623047,222.971603 213.063080,222.971603 
	C213.063080,243.792542 213.063080,264.305176 213.063080,285.013062 
	C221.186203,285.013062 229.006256,285.283203 236.800949,284.953674 
	C250.615173,284.369598 259.726654,276.359253 262.084381,263.225616 
	C265.283539,245.404861 259.605621,231.039627 247.126877,225.546295 
	C245.471695,224.817673 243.696579,224.050751 241.934311,223.931168 
	C235.155045,223.471176 228.358398,223.267227 220.590790,222.971603 
M150.530136,226.836639 
	C150.633667,239.486191 150.301575,252.158737 150.967331,264.778625 
	C151.591324,276.606720 159.308029,284.017517 171.016891,285.137451 
	C174.467041,285.467499 178.009140,285.409973 181.459961,285.053894 
	C192.875748,283.875854 201.051712,276.563599 201.680176,265.232025 
	C202.450729,251.338699 201.863876,237.370102 201.863876,223.396271 
	C196.798355,223.396271 191.941238,223.396271 187.011108,223.396271 
	C187.011108,235.423676 187.044693,247.077438 186.982559,258.730682 
	C186.970215,261.042816 186.844910,263.411224 186.331100,265.652679 
	C184.999146,271.462982 181.574387,274.128235 176.174164,273.909973 
	C170.624130,273.685638 166.881088,270.465546 166.017395,264.802094 
	C165.593292,262.021301 165.563614,259.163605 165.550919,256.339813 
	C165.501648,245.382523 165.530869,234.424881 165.530869,223.025452 
	C160.989304,223.025452 156.861420,222.873474 152.763458,223.155853 
	C151.960052,223.211197 151.272476,224.947433 150.530136,226.836639 
M290.756348,270.051086 
	C295.737823,270.051086 300.719299,270.051086 305.870300,270.051086 
	C307.464996,275.071564 309.006287,279.924011 310.519714,284.688721 
	C315.647308,284.688721 320.494171,284.688721 325.728424,284.688721 
	C319.170685,266.852814 312.761383,249.426254 306.356506,231.998047 
	C303.004150,222.875854 303.005585,223.045624 293.395935,222.925125 
	C290.258087,222.885757 289.124908,224.137039 288.147705,226.784943 
	C283.610870,239.078369 278.881897,251.300766 274.248413,263.558685 
	C271.622009,270.506775 269.047028,277.474304 266.341187,284.721527 
	C267.450806,284.856781 268.060516,284.980499 268.673340,284.998474 
	C280.946777,285.358643 281.074890,285.396088 284.691254,273.774261 
	C285.598755,270.857666 286.807312,269.496033 290.756348,270.051086 
M120.287300,260.070557 
	C121.851295,261.006897 124.162720,261.588989 124.812027,262.958923 
	C125.910210,265.275848 127.055603,268.613525 126.134987,270.548523 
	C125.228714,272.453308 121.531403,274.487885 119.495186,274.110474 
	C114.397163,273.165649 109.546310,270.887177 104.316231,269.045074 
	C102.925072,272.120087 101.393890,275.504608 99.893349,278.821381 
	C109.128922,284.476959 117.856628,286.468719 126.508499,285.074310 
	C135.022385,283.702118 141.695618,277.264160 142.982529,269.181122 
	C144.469284,259.842865 141.265594,253.691895 132.529053,249.229279 
	C128.982529,247.417740 124.995857,246.186081 121.962791,243.751892 
	C119.999237,242.176025 118.045647,238.620346 118.493561,236.447830 
	C119.249016,232.783585 123.223228,232.599030 126.389359,233.522720 
	C130.159088,234.622498 133.751205,236.331024 137.647766,237.865372 
	C139.285706,234.720291 140.934509,231.554337 142.760193,228.048767 
	C133.829956,223.079575 124.852974,220.581024 115.172279,223.258469 
	C108.356384,225.143570 103.302322,229.436447 101.981003,236.786377 
	C100.565956,244.657654 103.411171,250.893356 110.280128,255.051895 
	C113.253288,256.851868 116.469444,258.250488 120.287300,260.070557 
M309.032196,309.180573 
	C309.032196,312.644775 309.032196,316.108978 309.032196,319.749390 
	C311.574554,319.749390 313.464294,319.749390 315.676147,319.749390 
	C315.111816,310.586182 314.565582,301.716370 314.016571,292.802124 
	C311.812073,292.802124 310.167267,292.802124 308.397339,292.802124 
	C305.800507,299.199554 303.231873,305.527466 300.423248,312.446655 
	C298.160339,306.841187 295.917358,302.008972 294.273346,296.980927 
	C292.985535,293.042175 290.932373,291.663086 286.668945,293.232635 
	C286.157104,302.043854 285.640411,310.938232 285.126129,319.791748 
	C287.427277,319.791748 289.206512,319.791748 291.088715,319.791748 
	C291.346130,315.753662 291.589752,311.931549 291.840729,307.994293 
	C296.529968,311.413269 293.567871,321.039215 302.876007,319.947418 
	C304.473358,316.157623 305.999695,312.480103 307.589661,308.830322 
	C307.804993,308.335938 308.339142,307.980408 308.725708,307.560608 
	C308.824432,307.827759 308.923157,308.094910 309.032196,309.180573 
M361.638397,298.028168 
	C356.427917,290.498108 348.830841,293.010834 341.698425,292.722961 
	C341.698425,302.066559 341.698425,310.827148 341.698425,319.905396 
	C345.678650,319.905396 349.486176,320.197784 353.230682,319.836761 
	C358.821838,319.297729 362.529297,316.007874 363.098053,310.344055 
	C363.480194,306.538513 362.414856,302.587616 361.638397,298.028168 
M326.985107,299.478668 
	C327.864105,298.844177 328.698639,297.753204 329.630585,297.662476 
	C332.217041,297.410675 334.844055,297.575165 337.852173,297.575165 
	C337.687103,295.592346 337.573303,294.225494 337.472168,293.010437 
	C331.454529,293.010437 325.894196,293.010437 320.379761,293.010437 
	C320.379761,302.117554 320.379761,310.865875 320.379761,319.819702 
	C326.351105,319.819702 332.085205,319.819702 338.212830,319.819702 
	C338.112793,318.138977 338.022705,316.625000 337.913025,314.782227 
	C333.984894,314.782227 330.565674,314.782227 327.107178,314.782227 
	C327.107178,312.449615 327.107178,310.481323 327.107178,308.225861 
	C329.684906,308.225861 332.139282,308.225861 334.883911,308.225861 
	C335.213348,306.622345 335.498260,305.235626 335.902740,303.266998 
	C333.565094,303.266998 331.539124,303.590637 329.701111,303.142822 
	C328.638062,302.883820 327.877899,301.381531 326.985107,299.478668 
M393.328522,293.184357 
	C391.390594,292.968536 389.452637,292.752686 387.393951,292.523407 
	C383.886536,301.769867 380.504883,310.684784 377.028351,319.849854 
	C379.475891,319.849854 381.438751,319.849854 383.189941,319.849854 
	C385.415741,317.768311 383.794037,313.562775 388.750000,313.131226 
	C394.444305,312.635437 395.701019,315.901306 396.630127,319.786499 
	C399.017639,319.786499 400.955627,319.786499 403.215118,319.786499 
	C399.994476,310.920258 396.883942,302.357086 393.328522,293.184357 
M374.353912,296.511993 
	C374.933350,290.603790 370.843353,293.241455 368.129456,292.709595 
	C368.129456,302.037201 368.129456,310.903748 368.129456,319.710754 
	C370.345459,319.710754 372.259857,319.710754 374.354065,319.710754 
	C374.354065,312.117767 374.354065,304.812103 374.353912,296.511993 
z"/>
<path fill="#050505" opacity="1.000000" stroke="none" 
	d="
M356.289185,278.805359 
	C352.656616,270.061615 349.190704,261.667877 345.724792,253.274139 
	C345.411835,253.273163 345.098877,253.272186 344.785919,253.271210 
	C344.785919,263.723206 344.785919,274.175201 344.785919,284.777283 
	C339.509033,284.777283 335.082916,284.777283 330.285614,284.777283 
	C331.503998,264.148865 332.707520,243.771988 333.921661,223.215454 
	C338.275360,223.215454 342.409790,223.215454 347.003845,223.215454 
	C352.836029,237.889862 358.752747,252.776962 364.999756,268.495148 
	C367.343658,262.527008 369.404388,257.239594 371.495636,251.964294 
	C374.737854,243.785629 378.178162,235.679382 381.172028,227.411194 
	C382.458984,223.857025 384.282013,222.413330 388.053223,222.957230 
	C390.464630,223.305008 392.966949,223.022400 395.773773,223.022400 
	C396.993805,243.770813 398.191040,264.131226 399.404114,284.760834 
	C394.606415,284.760834 390.185944,284.760834 385.002380,284.760834 
	C385.002380,274.532837 385.002380,264.295776 385.002380,254.058685 
	C384.607971,253.977966 384.213531,253.897247 383.819122,253.816513 
	C383.314697,254.658905 382.696777,255.454071 382.323669,256.351074 
	C379.072266,264.167419 375.622833,271.914490 372.744568,279.867493 
	C371.271149,283.938690 369.232788,285.831665 364.844421,285.059753 
	C363.070709,284.747772 361.196259,285.008301 359.099457,285.008301 
	C358.215851,283.051971 357.335846,281.103668 356.289185,278.805359 
z"/>
<path fill="#040404" opacity="1.000000" stroke="none" 
	d="
M221.079514,222.969696 
	C228.358398,223.267227 235.155045,223.471176 241.934311,223.931168 
	C243.696579,224.050751 245.471695,224.817673 247.126877,225.546295 
	C259.605621,231.039627 265.283539,245.404861 262.084381,263.225616 
	C259.726654,276.359253 250.615173,284.369598 236.800949,284.953674 
	C229.006256,285.283203 221.186203,285.013062 213.063080,285.013062 
	C213.063080,264.305176 213.063080,243.792542 213.063080,222.971603 
	C215.623047,222.971603 218.106918,222.971603 221.079514,222.969696 
M246.562195,257.136719 
	C246.178070,252.845215 246.311478,248.427673 245.303375,244.288132 
	C243.121750,235.329666 237.107834,232.041199 228.239410,234.166153 
	C228.239410,247.602921 228.239410,260.994110 228.239410,274.345245 
	C239.189026,275.137482 244.296066,271.782196 245.902740,262.969910 
	C246.200867,261.334717 246.300949,259.663422 246.562195,257.136719 
z"/>
<path fill="#050505" opacity="1.000000" stroke="none" 
	d="
M150.530823,226.372528 
	C151.272476,224.947433 151.960052,223.211197 152.763458,223.155853 
	C156.861420,222.873474 160.989304,223.025452 165.530869,223.025452 
	C165.530869,234.424881 165.501648,245.382523 165.550919,256.339813 
	C165.563614,259.163605 165.593292,262.021301 166.017395,264.802094 
	C166.881088,270.465546 170.624130,273.685638 176.174164,273.909973 
	C181.574387,274.128235 184.999146,271.462982 186.331100,265.652679 
	C186.844910,263.411224 186.970215,261.042816 186.982559,258.730682 
	C187.044693,247.077438 187.011108,235.423676 187.011108,223.396271 
	C191.941238,223.396271 196.798355,223.396271 201.863876,223.396271 
	C201.863876,237.370102 202.450729,251.338699 201.680176,265.232025 
	C201.051712,276.563599 192.875748,283.875854 181.459961,285.053894 
	C178.009140,285.409973 174.467041,285.467499 171.016891,285.137451 
	C159.308029,284.017517 151.591324,276.606720 150.967331,264.778625 
	C150.301575,252.158737 150.633667,239.486191 150.530823,226.372528 
z"/>
<path fill="#040404" opacity="1.000000" stroke="none" 
	d="
M290.294067,270.051086 
	C286.807312,269.496033 285.598755,270.857666 284.691254,273.774261 
	C281.074890,285.396088 280.946777,285.358643 268.673340,284.998474 
	C268.060516,284.980499 267.450806,284.856781 266.341187,284.721527 
	C269.047028,277.474304 271.622009,270.506775 274.248413,263.558685 
	C278.881897,251.300766 283.610870,239.078369 288.147705,226.784943 
	C289.124908,224.137039 290.258087,222.885757 293.395935,222.925125 
	C303.005585,223.045624 303.004150,222.875854 306.356506,231.998047 
	C312.761383,249.426254 319.170685,266.852814 325.728424,284.688721 
	C320.494171,284.688721 315.647308,284.688721 310.519714,284.688721 
	C309.006287,279.924011 307.464996,275.071564 305.870300,270.051086 
	C300.719299,270.051086 295.737823,270.051086 290.294067,270.051086 
M296.451660,258.973358 
	C298.266937,258.973358 300.082184,258.973358 302.485382,258.973358 
	C300.388458,252.407089 298.419159,246.240524 296.000488,238.666794 
	C293.576385,246.236572 291.602509,252.400436 289.497620,258.973358 
	C291.893738,258.973358 293.707855,258.973358 296.451660,258.973358 
z"/>
<path fill="#050505" opacity="1.000000" stroke="none" 
	d="
M119.931259,259.950989 
	C116.469444,258.250488 113.253288,256.851868 110.280128,255.051895 
	C103.411171,250.893356 100.565956,244.657654 101.981003,236.786377 
	C103.302322,229.436447 108.356384,225.143570 115.172279,223.258469 
	C124.852974,220.581024 133.829956,223.079575 142.760193,228.048767 
	C140.934509,231.554337 139.285706,234.720291 137.647766,237.865372 
	C133.751205,236.331024 130.159088,234.622498 126.389359,233.522720 
	C123.223228,232.599030 119.249016,232.783585 118.493561,236.447830 
	C118.045647,238.620346 119.999237,242.176025 121.962791,243.751892 
	C124.995857,246.186081 128.982529,247.417740 132.529053,249.229279 
	C141.265594,253.691895 144.469284,259.842865 142.982529,269.181122 
	C141.695618,277.264160 135.022385,283.702118 126.508499,285.074310 
	C117.856628,286.468719 109.128922,284.476959 99.893349,278.821381 
	C101.393890,275.504608 102.925072,272.120087 104.316231,269.045074 
	C109.546310,270.887177 114.397163,273.165649 119.495186,274.110474 
	C121.531403,274.487885 125.228714,272.453308 126.134987,270.548523 
	C127.055603,268.613525 125.910210,265.275848 124.812027,262.958923 
	C124.162720,261.588989 121.851295,261.006897 119.931259,259.950989 
z"/>
<path fill="#0B0B0B" opacity="1.000000" stroke="none" 
	d="
M309.027039,308.771332 
	C308.923157,308.094910 308.824432,307.827759 308.725708,307.560608 
	C308.339142,307.980408 307.804993,308.335938 307.589661,308.830322 
	C305.999695,312.480103 304.473358,316.157623 302.876007,319.947418 
	C293.567871,321.039215 296.529968,311.413269 291.840729,307.994293 
	C291.589752,311.931549 291.346130,315.753662 291.088715,319.791748 
	C289.206512,319.791748 287.427277,319.791748 285.126129,319.791748 
	C285.640411,310.938232 286.157104,302.043854 286.668945,293.232635 
	C290.932373,291.663086 292.985535,293.042175 294.273346,296.980927 
	C295.917358,302.008972 298.160339,306.841187 300.423248,312.446655 
	C303.231873,305.527466 305.800507,299.199554 308.397339,292.802124 
	C310.167267,292.802124 311.812073,292.802124 314.016571,292.802124 
	C314.565582,301.716370 315.111816,310.586182 315.676147,319.749390 
	C313.464294,319.749390 311.574554,319.749390 309.032196,319.749390 
	C309.032196,316.108978 309.032196,312.644775 309.027039,308.771332 
z"/>
<path fill="#070707" opacity="1.000000" stroke="none" 
	d="
M361.817780,298.364960 
	C362.414856,302.587616 363.480194,306.538513 363.098053,310.344055 
	C362.529297,316.007874 358.821838,319.297729 353.230682,319.836761 
	C349.486176,320.197784 345.678650,319.905396 341.698425,319.905396 
	C341.698425,310.827148 341.698425,302.066559 341.698425,292.722961 
	C348.830841,293.010834 356.427917,290.498108 361.817780,298.364960 
M351.117035,315.247467 
	C355.960846,313.502258 357.412201,309.907318 356.168640,303.059753 
	C355.378571,298.709137 352.971832,296.727692 348.100677,297.427460 
	C348.100677,302.772278 348.025574,308.074219 348.194641,313.368347 
	C348.216064,314.039032 349.517456,314.668854 351.117035,315.247467 
z"/>
<path fill="#0F0F0F" opacity="1.000000" stroke="none" 
	d="
M326.983276,299.958740 
	C327.877899,301.381531 328.638062,302.883820 329.701111,303.142822 
	C331.539124,303.590637 333.565094,303.266998 335.902740,303.266998 
	C335.498260,305.235626 335.213348,306.622345 334.883911,308.225861 
	C332.139282,308.225861 329.684906,308.225861 327.107178,308.225861 
	C327.107178,310.481323 327.107178,312.449615 327.107178,314.782227 
	C330.565674,314.782227 333.984894,314.782227 337.913025,314.782227 
	C338.022705,316.625000 338.112793,318.138977 338.212830,319.819702 
	C332.085205,319.819702 326.351105,319.819702 320.379761,319.819702 
	C320.379761,310.865875 320.379761,302.117554 320.379761,293.010437 
	C325.894196,293.010437 331.454529,293.010437 337.472168,293.010437 
	C337.573303,294.225494 337.687103,295.592346 337.852173,297.575165 
	C334.844055,297.575165 332.217041,297.410675 329.630585,297.662476 
	C328.698639,297.753204 327.864105,298.844177 326.983276,299.958740 
z"/>
<path fill="#070707" opacity="1.000000" stroke="none" 
	d="
M393.550964,293.489136 
	C396.883942,302.357086 399.994476,310.920258 403.215118,319.786499 
	C400.955627,319.786499 399.017639,319.786499 396.630127,319.786499 
	C395.701019,315.901306 394.444305,312.635437 388.750000,313.131226 
	C383.794037,313.562775 385.415741,317.768311 383.189941,319.849854 
	C381.438751,319.849854 379.475891,319.849854 377.028351,319.849854 
	C380.504883,310.684784 383.886536,301.769867 387.393951,292.523407 
	C389.452637,292.752686 391.390594,292.968536 393.550964,293.489136 
M392.316040,306.090912 
	C391.742828,304.262360 391.169617,302.433807 390.207733,299.365387 
	C388.992950,303.011505 388.153656,305.530518 387.314392,308.049530 
	C387.644897,308.429321 387.975403,308.809113 388.305908,309.188904 
	C389.746002,308.384125 391.186096,307.579346 392.316040,306.090912 
z"/>
<path fill="#000000" opacity="1.000000" stroke="none" 
	d="
M374.354004,297.009216 
	C374.354065,304.812103 374.354065,312.117767 374.354065,319.710754 
	C372.259857,319.710754 370.345459,319.710754 368.129456,319.710754 
	C368.129456,310.903748 368.129456,302.037201 368.129456,292.709595 
	C370.843353,293.241455 374.933350,290.603790 374.354004,297.009216 
z"/>
<path fill="#FBFBFB" opacity="1.000000" stroke="none" 
	d="
M246.527313,257.572754 
	C246.300949,259.663422 246.200867,261.334717 245.902740,262.969910 
	C244.296066,271.782196 239.189026,275.137482 228.239410,274.345245 
	C228.239410,260.994110 228.239410,247.602921 228.239410,234.166153 
	C237.107834,232.041199 243.121750,235.329666 245.303375,244.288132 
	C246.311478,248.427673 246.178070,252.845215 246.527313,257.572754 
z"/>
<path fill="#F3F3F3" opacity="1.000000" stroke="none" 
	d="
M295.986816,258.973358 
	C293.707855,258.973358 291.893738,258.973358 289.497620,258.973358 
	C291.602509,252.400436 293.576385,246.236572 296.000488,238.666794 
	C298.419159,246.240524 300.388458,252.407089 302.485382,258.973358 
	C300.082184,258.973358 298.266937,258.973358 295.986816,258.973358 
z"/>
<path fill="#F3F3F3" opacity="1.000000" stroke="none" 
	d="
M350.671448,315.282532 
	C349.517456,314.668854 348.216064,314.039032 348.194641,313.368347 
	C348.025574,308.074219 348.100677,302.772278 348.100677,297.427460 
	C352.971832,296.727692 355.378571,298.709137 356.168640,303.059753 
	C357.412201,309.907318 355.960846,313.502258 350.671448,315.282532 
z"/>
<path fill="#CCCCCC" opacity="1.000000" stroke="none" 
	d="
M392.471130,306.432739 
	C391.186096,307.579346 389.746002,308.384125 388.305908,309.188904 
	C387.975403,308.809113 387.644897,308.429321 387.314392,308.049530 
	C388.153656,305.530518 388.992950,303.011505 390.207733,299.365387 
	C391.169617,302.433807 391.742828,304.262360 392.471130,306.432739 
z"/>
</svg>