<?xml version="1.0" standalone="no"?>
<!DOCTYPE svg PUBLIC "-//W3C//DTD SVG 20010904//EN"
 "http://www.w3.org/TR/2001/REC-SVG-20010904/DTD/svg10.dtd">
<svg version="1.0" xmlns="http://www.w3.org/2000/svg"
 width="500.000000pt" height="500.000000pt" viewBox="0 0 500.000000 500.000000"
 preserveAspectRatio="xMidYMid meet">

<g transform="translate(0.000000,500.000000) scale(0.100000,-0.100000)"
fill="#000000" stroke="none">
<path d="M1154 2780 c-89 -21 -144 -86 -144 -169 0 -90 31 -128 156 -190 45
-22 84 -47 88 -56 32 -85 -52 -122 -156 -70 -27 14 -53 25 -57 25 -4 0 -17
-21 -30 -47 -22 -45 -22 -48 -5 -60 75 -55 230 -71 309 -33 71 34 100 85 100
174 0 96 -19 121 -132 178 -95 47 -127 83 -107 115 21 34 59 39 117 14 28 -12
57 -24 62 -27 6 -2 22 19 38 47 l27 50 -44 20 c-77 34 -159 45 -222 29z"/>
<path d="M1500 2553 c0 -201 3 -233 19 -268 41 -88 112 -127 234 -127 68 0 88
5 136 29 59 30 94 72 111 132 5 20 10 132 10 249 l0 212 -74 0 -75 0 -3 -226
-3 -226 -33 -29 c-21 -18 -43 -29 -63 -29 -37 0 -84 23 -95 47 -5 10 -11 117
-14 238 l-5 220 -72 3 -73 3 0 -228z"/>
<path d="M2120 2470 l0 -310 133 0 c156 0 214 14 274 64 64 55 87 120 88 241
0 93 -2 105 -32 166 -58 116 -131 149 -335 149 l-128 0 0 -310z m270 181 c45
-31 64 -85 63 -186 0 -141 -32 -187 -139 -202 l-44 -6 0 206 c0 187 2 206 18
210 28 6 75 -4 102 -22z"/>
<path d="M2876 2748 c-8 -18 -52 -134 -99 -258 -47 -124 -95 -249 -106 -278
l-21 -53 77 3 77 3 22 70 22 70 101 3 101 3 22 -76 22 -75 78 0 77 0 -19 53
c-11 28 -62 167 -114 307 l-93 255 -67 3 -67 3 -13 -33z m103 -215 c13 -43 26
-86 28 -95 5 -16 -2 -18 -57 -18 -55 0 -62 2 -57 18 28 100 52 172 57 172 3 0
16 -35 29 -77z"/>
<path d="M3326 2713 c-3 -38 -10 -156 -16 -263 -6 -107 -13 -216 -15 -242 l-6
-48 69 0 69 0 6 68 c4 37 7 112 7 167 l1 100 48 -120 c27 -66 58 -141 69 -167
l21 -48 58 0 58 0 57 138 c32 75 63 151 70 167 11 26 13 9 16 -137 l2 -168 70
0 70 0 0 53 c0 28 -7 153 -15 277 -8 124 -15 240 -15 258 l0 33 -66 -3 -66 -3
-84 -210 c-46 -115 -84 -216 -84 -222 0 -38 -24 10 -103 212 l-89 225 -63 0
-63 0 -6 -67z"/>
<path d="M2856 2038 c-3 -24 -7 -85 -10 -135 l-6 -93 30 0 c27 0 30 3 30 34 0
18 3 48 6 66 7 31 7 31 33 -32 22 -52 31 -64 53 -66 23 -3 28 3 56 70 l31 73
1 -72 0 -73 34 0 34 0 -4 63 c-16 222 -13 207 -44 207 -27 0 -31 -6 -67 -99
l-39 -99 -38 99 c-36 92 -41 99 -67 99 -25 0 -28 -4 -33 -42z"/>
<path d="M3190 1945 l0 -135 90 0 c89 0 90 0 90 25 0 24 -3 25 -55 25 l-55 0
0 35 c0 34 1 35 39 35 26 0 41 5 45 16 10 25 -2 34 -45 34 -35 0 -39 3 -39 24
0 23 4 25 53 28 45 3 52 6 55 26 3 21 1 22 -87 22 l-91 0 0 -135z"/>
<path d="M3410 1945 l0 -135 63 0 c102 0 150 41 151 127 2 102 -40 143 -148
143 l-66 0 0 -135z m120 75 c19 -19 25 -46 20 -100 -3 -42 -19 -60 -50 -60
l-30 0 0 90 c0 83 1 90 20 90 11 0 29 -9 40 -20z"/>
<path d="M3670 1945 l0 -135 30 0 30 0 0 135 0 135 -30 0 -30 0 0 -135z"/>
<path d="M3840 2023 c-12 -32 -35 -93 -51 -135 l-28 -78 33 0 c29 0 34 4 42
33 9 30 13 32 54 32 42 0 46 -2 55 -32 8 -29 13 -33 43 -33 23 0 33 4 30 13
-3 6 -25 67 -49 134 -43 121 -44 123 -75 123 -29 0 -33 -5 -54 -57z m68 -60
c10 -31 10 -33 -14 -33 -27 0 -29 6 -14 46 12 31 13 30 28 -13z"/>
</g>
</svg>
