<svg version="1.1" id="Layer_1" xmlns="http://www.w3.org/2000/svg" xmlns:xlink="http://www.w3.org/1999/xlink" x="0px" y="0px"
	 width="100%" viewBox="0 0 500 500" enable-background="new 0 0 500 500" xml:space="preserve">
<path fill="#000000" opacity="1.000000" stroke="none" 
	d="
M455.000000,501.000000 
	C303.333374,501.000000 152.166733,501.000000 1.000081,501.000000 
	C1.000054,334.333405 1.000054,167.666824 1.000027,1.000171 
	C167.666550,1.000114 334.333099,1.000114 500.999756,1.000057 
	C500.999817,167.666519 500.999817,334.333038 500.999908,500.999756 
	C485.833344,501.000000 470.666656,501.000000 455.000000,501.000000 
M356.410339,278.231964 
	C357.352753,284.262909 361.673218,283.865479 366.363647,284.191559 
	C371.526764,284.550415 371.758881,280.940857 373.036438,277.948914 
	C376.584473,269.640106 380.051575,261.296722 383.550629,252.966995 
	C383.943787,253.006546 384.336945,253.046097 384.730103,253.085648 
	C384.730103,263.254333 384.730103,273.423035 384.730103,283.717041 
	C390.113678,283.717041 394.668060,283.717041 399.497070,283.717041 
	C398.276611,263.043640 397.074341,242.677750 395.853241,221.993332 
	C392.811646,221.993332 390.136749,222.277435 387.548340,221.925385 
	C383.856140,221.423203 382.275543,223.065277 381.150024,226.356796 
	C379.272034,231.849075 376.965332,237.195419 374.818329,242.594955 
	C371.614655,250.652115 368.392914,258.702087 364.978149,267.257996 
	C358.803375,251.715561 352.891113,236.833878 347.063446,222.165085 
	C342.417877,222.165085 338.276398,222.165085 333.866455,222.165085 
	C332.649323,242.709595 331.441376,263.098846 330.217468,283.757507 
	C334.973755,283.757507 339.407654,283.757507 344.725922,283.757507 
	C344.725922,273.276764 344.725922,262.818878 344.725922,252.360962 
	C345.051941,252.359924 345.377991,252.358887 345.704010,252.357849 
	C349.169861,260.747833 352.635712,269.137848 356.410339,278.231964 
M240.803284,283.617249 
	C251.810089,281.506500 259.398285,275.313843 261.703766,264.230804 
	C264.438690,251.083359 264.052612,238.172821 253.122803,228.299042 
	C250.306061,225.754456 246.281769,223.572952 242.593506,223.155151 
	C232.795746,222.045258 222.878647,221.988937 212.864777,221.506607 
	C212.864777,242.897552 212.864777,263.305542 212.864777,283.793030 
	C222.021515,283.793030 230.977615,283.793030 240.803284,283.617249 
M202.053680,222.689651 
	C197.069427,222.385391 192.085175,222.081131 186.998337,221.770599 
	C186.998337,233.857269 187.043518,245.006531 186.966766,256.154968 
	C186.947418,258.964081 186.831039,261.833160 186.247025,264.565216 
	C185.007812,270.362610 181.457779,273.120270 176.159256,272.868591 
	C170.641235,272.606445 166.864731,269.319794 166.047455,263.677460 
	C165.644348,260.894501 165.695206,258.033844 165.685745,255.207870 
	C165.649139,244.264648 165.670868,233.321243 165.670868,222.187592 
	C160.418915,222.187592 155.658829,222.187592 151.129333,222.187592 
	C151.129333,237.102615 150.581070,251.892319 151.466171,266.595764 
	C151.728882,270.959930 155.111267,276.188751 158.646652,279.098816 
	C167.888870,286.706207 178.803268,286.143280 189.309662,281.882599 
	C199.037125,277.937775 202.116684,269.496826 202.123978,259.619141 
	C202.132812,247.633667 202.125473,235.648178 202.053680,222.689651 
M291.993164,221.994598 
	C290.729675,223.200302 288.886841,224.174194 288.296600,225.649292 
	C284.412445,235.356552 280.792572,245.169678 277.097534,254.952454 
	C273.488373,264.507782 269.892334,274.068024 266.146820,284.007507 
	C270.570557,284.007507 274.425262,284.290436 278.199371,283.862427 
	C279.624359,283.700806 281.470123,282.161133 282.069977,280.788849 
	C283.711884,277.032776 284.793549,273.031830 286.053040,269.259644 
	C292.902039,269.259644 299.357880,269.259644 305.890167,269.259644 
	C307.480591,274.247803 309.025238,279.092377 310.552765,283.883179 
	C315.758575,283.883179 320.568512,283.883179 325.650604,283.883179 
	C325.193115,282.457947 324.837372,281.208344 324.394165,279.990540 
	C318.546509,263.923248 312.693054,247.858063 306.827332,231.797363 
	C303.245636,221.990402 303.235046,221.994278 291.993164,221.994598 
M115.487854,284.035065 
	C117.142006,284.228790 118.791367,284.516388 120.451088,284.601044 
	C131.449280,285.162018 140.651230,278.876617 142.846207,269.351929 
	C145.226440,259.023407 141.291473,252.162018 130.110672,246.990051 
	C127.252930,245.668137 123.985588,244.673416 121.821220,242.581772 
	C119.981903,240.804306 119.460030,237.663559 118.355247,235.126007 
	C120.999649,234.242538 123.790169,232.351395 126.254623,232.708771 
	C130.074295,233.262680 133.671570,235.350052 137.672745,236.907791 
	C139.285065,233.872345 140.972534,230.695389 142.856155,227.149200 
	C135.215454,222.422501 127.160500,220.263489 118.487526,221.454773 
	C109.465721,222.693954 103.145630,228.450775 101.901115,235.770157 
	C100.432159,244.409637 103.918121,250.916901 112.743835,255.640167 
	C116.107132,257.440094 119.666893,258.869385 123.068512,260.602264 
	C126.521484,262.361328 127.705933,265.307800 126.674568,268.974609 
	C125.560234,272.936401 121.056847,274.534027 115.734192,272.601318 
	C112.020607,271.252869 108.510979,269.342773 104.509453,267.498840 
	C102.955933,270.896484 101.410042,274.277405 99.440361,278.585205 
	C104.774147,280.467041 109.711678,282.209076 115.487854,284.035065 
M294.692535,312.868591 
	C295.269470,314.245850 295.601868,315.814392 296.489258,316.948792 
	C297.454865,318.183228 299.023590,319.909027 300.170013,319.796539 
	C301.621887,319.654114 303.382843,318.140869 304.176147,316.744720 
	C305.842590,313.811890 306.964294,310.569550 308.309631,307.454254 
	C308.610840,307.506744 308.912079,307.559235 309.213287,307.611755 
	C309.213287,311.652283 309.213287,315.692841 309.213287,319.747437 
	C311.657471,319.747437 313.568115,319.747437 315.787048,319.747437 
	C315.213562,310.569946 314.658569,301.688293 314.119659,293.064026 
	C309.856079,291.556946 307.913452,292.969849 306.672150,296.714142 
	C304.963348,301.868591 302.671387,306.829681 300.449768,312.317047 
	C298.229523,306.811676 295.882721,301.843536 294.240173,296.652588 
	C292.906097,292.436371 290.602997,291.718872 286.586151,293.174835 
	C286.078461,302.073547 285.571503,310.959656 285.065338,319.831665 
	C287.409424,319.831665 289.201233,319.831665 291.203033,319.831665 
	C291.459351,315.851013 291.704742,312.039581 291.950165,308.228149 
	C292.215698,308.208008 292.481232,308.187866 292.746765,308.167694 
	C293.264465,309.503235 293.782166,310.838776 294.692535,312.868591 
M341.361969,311.424774 
	C341.361969,314.200836 341.361969,316.976898 341.361969,320.135345 
	C348.951660,319.495667 356.859650,322.393127 361.855072,314.601654 
	C364.928436,309.808167 364.516113,301.452454 361.055847,297.113495 
	C355.788849,290.508942 348.544495,292.832977 341.362000,292.448029 
	C341.362000,298.884308 341.362000,304.663452 341.361969,311.424774 
M392.325073,313.509003 
	C393.971985,315.408905 395.618927,317.308838 397.773071,319.793884 
	C398.799164,319.793884 400.874420,319.793884 403.360931,319.793884 
	C400.216278,311.249023 397.267822,303.014984 394.086456,294.871979 
	C393.685364,293.845306 392.096222,292.741058 390.992188,292.668579 
	C389.626068,292.579010 387.307281,293.163483 386.924835,294.087738 
	C383.437256,302.515076 380.281708,311.079803 376.985413,319.718994 
	C379.690918,319.718994 381.771240,319.718994 383.982391,319.718994 
	C384.406860,314.925964 386.543640,312.462524 392.325073,313.509003 
M334.379150,308.144806 
	C334.952911,306.710846 335.526672,305.276855 336.360260,303.193420 
	C332.829559,303.193420 330.082001,303.193420 327.229340,303.193420 
	C327.229340,301.158569 327.229340,299.572571 327.229340,297.460205 
	C330.835052,297.460205 334.222168,297.460205 337.950256,297.460205 
	C337.771057,295.521759 337.643463,294.141388 337.525665,292.867279 
	C331.512634,292.867279 325.924316,292.867279 320.481262,292.867279 
	C320.481262,302.097595 320.481262,310.991974 320.481262,319.714386 
	C326.593567,319.714386 332.336090,319.714386 338.347443,319.714386 
	C338.211273,317.967499 338.100891,316.551453 337.968994,314.859406 
	C334.199219,314.859406 330.759094,314.859406 327.290985,314.859406 
	C327.290985,312.504486 327.290985,310.462067 327.290985,308.190186 
	C329.568329,308.190186 331.555481,308.190186 334.379150,308.144806 
M367.740723,297.824402 
	C367.740723,305.116272 367.740723,312.408173 367.740723,319.747192 
	C370.121826,319.747192 372.191711,319.747192 374.234375,319.747192 
	C374.234375,310.577515 374.234375,301.699982 374.234375,292.771393 
	C371.967621,292.771393 370.045227,292.771393 367.740723,292.771393 
	C367.740723,294.324158 367.740723,295.623871 367.740723,297.824402 
z"/>
<path fill="#FAFAFA" opacity="1.000000" stroke="none" 
	d="
M356.255951,277.879883 
	C352.635712,269.137848 349.169861,260.747833 345.704010,252.357849 
	C345.377991,252.358887 345.051941,252.359924 344.725922,252.360962 
	C344.725922,262.818878 344.725922,273.276764 344.725922,283.757507 
	C339.407654,283.757507 334.973755,283.757507 330.217468,283.757507 
	C331.441376,263.098846 332.649323,242.709595 333.866455,222.165085 
	C338.276398,222.165085 342.417877,222.165085 347.063446,222.165085 
	C352.891113,236.833878 358.803375,251.715561 364.978149,267.257996 
	C368.392914,258.702087 371.614655,250.652115 374.818329,242.594955 
	C376.965332,237.195419 379.272034,231.849075 381.150024,226.356796 
	C382.275543,223.065277 383.856140,221.423203 387.548340,221.925385 
	C390.136749,222.277435 392.811646,221.993332 395.853241,221.993332 
	C397.074341,242.677750 398.276611,263.043640 399.497070,283.717041 
	C394.668060,283.717041 390.113678,283.717041 384.730103,283.717041 
	C384.730103,273.423035 384.730103,263.254333 384.730103,253.085648 
	C384.336945,253.046097 383.943787,253.006546 383.550629,252.966995 
	C380.051575,261.296722 376.584473,269.640106 373.036438,277.948914 
	C371.758881,280.940857 371.526764,284.550415 366.363647,284.191559 
	C361.673218,283.865479 357.352753,284.262909 356.255951,277.879883 
z"/>
<path fill="#FBFBFB" opacity="1.000000" stroke="none" 
	d="
M240.368500,283.705139 
	C230.977615,283.793030 222.021515,283.793030 212.864777,283.793030 
	C212.864777,263.305542 212.864777,242.897552 212.864777,221.506607 
	C222.878647,221.988937 232.795746,222.045258 242.593506,223.155151 
	C246.281769,223.572952 250.306061,225.754456 253.122803,228.299042 
	C264.052612,238.172821 264.438690,251.083359 261.703766,264.230804 
	C259.398285,275.313843 251.810089,281.506500 240.368500,283.705139 
M231.343475,273.484100 
	C240.207947,272.979797 244.497314,270.238647 245.568283,262.657227 
	C246.413681,256.672821 246.517471,250.344193 245.547333,244.397369 
	C243.990311,234.852936 238.073990,231.445847 227.893448,233.202209 
	C227.893448,245.714081 227.843628,258.292175 228.000565,270.867706 
	C228.011551,271.748322 229.553131,272.609863 231.343475,273.484100 
z"/>
<path fill="#F9F9F9" opacity="1.000000" stroke="none" 
	d="
M202.089417,223.176178 
	C202.125473,235.648178 202.132812,247.633667 202.123978,259.619141 
	C202.116684,269.496826 199.037125,277.937775 189.309662,281.882599 
	C178.803268,286.143280 167.888870,286.706207 158.646652,279.098816 
	C155.111267,276.188751 151.728882,270.959930 151.466171,266.595764 
	C150.581070,251.892319 151.129333,237.102615 151.129333,222.187592 
	C155.658829,222.187592 160.418915,222.187592 165.670868,222.187592 
	C165.670868,233.321243 165.649139,244.264648 165.685745,255.207870 
	C165.695206,258.033844 165.644348,260.894501 166.047455,263.677460 
	C166.864731,269.319794 170.641235,272.606445 176.159256,272.868591 
	C181.457779,273.120270 185.007812,270.362610 186.247025,264.565216 
	C186.831039,261.833160 186.947418,258.964081 186.966766,256.154968 
	C187.043518,245.006531 186.998337,233.857269 186.998337,221.770599 
	C192.085175,222.081131 197.069427,222.385391 202.089417,223.176178 
z"/>
<path fill="#FBFBFB" opacity="1.000000" stroke="none" 
	d="
M292.439972,221.994446 
	C303.235046,221.994278 303.245636,221.990402 306.827332,231.797363 
	C312.693054,247.858063 318.546509,263.923248 324.394165,279.990540 
	C324.837372,281.208344 325.193115,282.457947 325.650604,283.883179 
	C320.568512,283.883179 315.758575,283.883179 310.552765,283.883179 
	C309.025238,279.092377 307.480591,274.247803 305.890167,269.259644 
	C299.357880,269.259644 292.902039,269.259644 286.053040,269.259644 
	C284.793549,273.031830 283.711884,277.032776 282.069977,280.788849 
	C281.470123,282.161133 279.624359,283.700806 278.199371,283.862427 
	C274.425262,284.290436 270.570557,284.007507 266.146820,284.007507 
	C269.892334,274.068024 273.488373,264.507782 277.097534,254.952454 
	C280.792572,245.169678 284.412445,235.356552 288.296600,225.649292 
	C288.886841,224.174194 290.729675,223.200302 292.439972,221.994446 
M291.418182,252.016342 
	C290.844910,253.859940 290.271606,255.703537 289.649811,257.703125 
	C294.093353,257.703125 298.001587,257.703125 302.381409,257.703125 
	C300.328613,251.326889 298.389618,245.304047 296.000458,237.882935 
	C294.291260,243.258820 293.017944,247.263718 291.418182,252.016342 
z"/>
<path fill="#FAFAFA" opacity="1.000000" stroke="none" 
	d="
M115.068527,283.993103 
	C109.711678,282.209076 104.774147,280.467041 99.440361,278.585205 
	C101.410042,274.277405 102.955933,270.896484 104.509453,267.498840 
	C108.510979,269.342773 112.020607,271.252869 115.734192,272.601318 
	C121.056847,274.534027 125.560234,272.936401 126.674568,268.974609 
	C127.705933,265.307800 126.521484,262.361328 123.068512,260.602264 
	C119.666893,258.869385 116.107132,257.440094 112.743835,255.640167 
	C103.918121,250.916901 100.432159,244.409637 101.901115,235.770157 
	C103.145630,228.450775 109.465721,222.693954 118.487526,221.454773 
	C127.160500,220.263489 135.215454,222.422501 142.856155,227.149200 
	C140.972534,230.695389 139.285065,233.872345 137.672745,236.907791 
	C133.671570,235.350052 130.074295,233.262680 126.254623,232.708771 
	C123.790169,232.351395 120.999649,234.242538 118.355247,235.126007 
	C119.460030,237.663559 119.981903,240.804306 121.821220,242.581772 
	C123.985588,244.673416 127.252930,245.668137 130.110672,246.990051 
	C141.291473,252.162018 145.226440,259.023407 142.846207,269.351929 
	C140.651230,278.876617 131.449280,285.162018 120.451088,284.601044 
	C118.791367,284.516388 117.142006,284.228790 115.068527,283.993103 
z"/>
<path fill="#F3F3F3" opacity="1.000000" stroke="none" 
	d="
M294.496216,312.521454 
	C293.782166,310.838776 293.264465,309.503235 292.746765,308.167694 
	C292.481232,308.187866 292.215698,308.208008 291.950165,308.228149 
	C291.704742,312.039581 291.459351,315.851013 291.203033,319.831665 
	C289.201233,319.831665 287.409424,319.831665 285.065338,319.831665 
	C285.571503,310.959656 286.078461,302.073547 286.586151,293.174835 
	C290.602997,291.718872 292.906097,292.436371 294.240173,296.652588 
	C295.882721,301.843536 298.229523,306.811676 300.449768,312.317047 
	C302.671387,306.829681 304.963348,301.868591 306.672150,296.714142 
	C307.913452,292.969849 309.856079,291.556946 314.119659,293.064026 
	C314.658569,301.688293 315.213562,310.569946 315.787048,319.747437 
	C313.568115,319.747437 311.657471,319.747437 309.213287,319.747437 
	C309.213287,315.692841 309.213287,311.652283 309.213287,307.611755 
	C308.912079,307.559235 308.610840,307.506744 308.309631,307.454254 
	C306.964294,310.569550 305.842590,313.811890 304.176147,316.744720 
	C303.382843,318.140869 301.621887,319.654114 300.170013,319.796539 
	C299.023590,319.909027 297.454865,318.183228 296.489258,316.948792 
	C295.601868,315.814392 295.269470,314.245850 294.496216,312.521454 
z"/>
<path fill="#F0F0F0" opacity="1.000000" stroke="none" 
	d="
M341.362000,310.933716 
	C341.362000,304.663452 341.362000,298.884308 341.362000,292.448029 
	C348.544495,292.832977 355.788849,290.508942 361.055847,297.113495 
	C364.516113,301.452454 364.928436,309.808167 361.855072,314.601654 
	C356.859650,322.393127 348.951660,319.495667 341.361969,320.135345 
	C341.361969,316.976898 341.361969,314.200836 341.362000,310.933716 
M348.163269,308.431396 
	C348.163269,310.566315 348.163269,312.701263 348.163269,314.800903 
	C354.373901,315.347809 356.207214,313.544342 356.363892,307.128937 
	C356.542480,299.819061 354.535400,297.362976 348.163269,297.622375 
	C348.163269,300.888916 348.163269,304.182495 348.163269,308.431396 
z"/>
<path fill="#F0F0F0" opacity="1.000000" stroke="none" 
	d="
M391.869934,313.506866 
	C386.543640,312.462524 384.406860,314.925964 383.982391,319.718994 
	C381.771240,319.718994 379.690918,319.718994 376.985413,319.718994 
	C380.281708,311.079803 383.437256,302.515076 386.924835,294.087738 
	C387.307281,293.163483 389.626068,292.579010 390.992188,292.668579 
	C392.096222,292.741058 393.685364,293.845306 394.086456,294.871979 
	C397.267822,303.014984 400.216278,311.249023 403.360931,319.793884 
	C400.874420,319.793884 398.799164,319.793884 397.773071,319.793884 
	C395.618927,317.308838 393.971985,315.408905 391.869934,313.506866 
z"/>
<path fill="#F2F2F2" opacity="1.000000" stroke="none" 
	d="
M333.960876,308.167480 
	C331.555481,308.190186 329.568329,308.190186 327.290985,308.190186 
	C327.290985,310.462067 327.290985,312.504486 327.290985,314.859406 
	C330.759094,314.859406 334.199219,314.859406 337.968994,314.859406 
	C338.100891,316.551453 338.211273,317.967499 338.347443,319.714386 
	C332.336090,319.714386 326.593567,319.714386 320.481262,319.714386 
	C320.481262,310.991974 320.481262,302.097595 320.481262,292.867279 
	C325.924316,292.867279 331.512634,292.867279 337.525665,292.867279 
	C337.643463,294.141388 337.771057,295.521759 337.950256,297.460205 
	C334.222168,297.460205 330.835052,297.460205 327.229340,297.460205 
	C327.229340,299.572571 327.229340,301.158569 327.229340,303.193420 
	C330.082001,303.193420 332.829559,303.193420 336.360260,303.193420 
	C335.526672,305.276855 334.952911,306.710846 333.960876,308.167480 
z"/>
<path fill="#EDEDED" opacity="1.000000" stroke="none" 
	d="
M367.740723,297.373993 
	C367.740723,295.623871 367.740723,294.324158 367.740723,292.771393 
	C370.045227,292.771393 371.967621,292.771393 374.234375,292.771393 
	C374.234375,301.699982 374.234375,310.577515 374.234375,319.747192 
	C372.191711,319.747192 370.121826,319.747192 367.740723,319.747192 
	C367.740723,312.408173 367.740723,305.116272 367.740723,297.373993 
z"/>
<path fill="#020202" opacity="1.000000" stroke="none" 
	d="
M230.863220,273.482178 
	C229.553131,272.609863 228.011551,271.748322 228.000565,270.867706 
	C227.843628,258.292175 227.893448,245.714081 227.893448,233.202209 
	C238.073990,231.445847 243.990311,234.852936 245.547333,244.397369 
	C246.517471,250.344193 246.413681,256.672821 245.568283,262.657227 
	C244.497314,270.238647 240.207947,272.979797 230.863220,273.482178 
z"/>
<path fill="#0C0C0C" opacity="1.000000" stroke="none" 
	d="
M291.581421,251.642471 
	C293.017944,247.263718 294.291260,243.258820 296.000458,237.882935 
	C298.389618,245.304047 300.328613,251.326889 302.381409,257.703125 
	C298.001587,257.703125 294.093353,257.703125 289.649811,257.703125 
	C290.271606,255.703537 290.844910,253.859940 291.581421,251.642471 
z"/>
<path fill="#0E0E0E" opacity="1.000000" stroke="none" 
	d="
M348.163269,307.953735 
	C348.163269,304.182495 348.163269,300.888916 348.163269,297.622375 
	C354.535400,297.362976 356.542480,299.819061 356.363892,307.128937 
	C356.207214,313.544342 354.373901,315.347809 348.163269,314.800903 
	C348.163269,312.701263 348.163269,310.566315 348.163269,307.953735 
z"/>
</svg>