<?xml version="1.0" standalone="no"?>
<!DOCTYPE svg PUBLIC "-//W3C//DTD SVG 20010904//EN"
 "http://www.w3.org/TR/2001/REC-SVG-20010904/DTD/svg10.dtd">
<svg version="1.0" xmlns="http://www.w3.org/2000/svg"
 width="300.000000pt" height="117.000000pt" viewBox="0 0 300.000000 117.000000"
 preserveAspectRatio="xMidYMid meet">
<metadata>
Created by potrace 1.10, written by Peter Selinger 2001-2011
</metadata>
<g transform="translate(0.000000,117.000000) scale(0.100000,-0.100000)"
fill="#000000" stroke="none">
<path d="M139 1082 c-38 -20 -62 -41 -82 -73 -74 -120 -27 -239 125 -315 65
-33 85 -58 54 -70 -7 -3 -42 7 -76 21 -63 26 -63 27 -89 7 -14 -10 -35 -40
-45 -65 -18 -44 -18 -47 -2 -72 28 -43 118 -78 211 -83 73 -4 85 -1 134 25 37
19 65 44 88 78 19 28 38 51 41 52 4 1 21 -19 37 -45 17 -27 50 -59 78 -76 41
-25 61 -30 131 -34 112 -6 173 14 237 78 70 70 79 110 79 351 l0 197 -31 26
c-43 36 -125 37 -166 2 l-28 -24 -5 -200 c-6 -220 -10 -235 -64 -230 -50 5
-56 30 -56 239 0 233 -1 234 -110 234 -69 0 -73 -2 -99 -32 -26 -31 -26 -31
-49 -12 -35 28 -117 49 -193 49 -54 0 -77 -5 -120 -28z m274 -40 l47 -21 -27
-51 c-16 -27 -32 -48 -38 -46 -5 3 -33 14 -61 27 -78 34 -125 14 -110 -46 5
-18 28 -36 96 -71 98 -50 129 -83 137 -144 17 -122 -74 -219 -203 -220 -54 0
-168 30 -195 52 -15 12 -14 18 7 65 l24 51 53 -29 c55 -30 123 -39 145 -17 13
13 16 67 4 84 -4 6 -44 30 -90 54 -45 23 -91 54 -102 68 -28 35 -44 94 -36
136 8 43 58 103 101 123 45 20 187 12 248 -15z m259 -186 c3 -211 3 -215 27
-240 47 -50 127 -43 156 13 12 24 15 70 15 236 l0 205 76 0 75 0 -3 -223 -3
-224 -30 -48 c-39 -64 -100 -96 -192 -102 -87 -7 -144 9 -193 53 -62 56 -69
89 -72 332 l-3 212 72 0 72 0 3 -214z m-192 8 l0 -96 -40 36 c-22 19 -67 49
-100 66 -33 17 -60 35 -60 41 0 12 12 10 89 -13 l44 -13 31 37 c17 21 32 38
34 38 1 0 2 -43 2 -96z"/>
<path d="M1099 1080 l-32 -31 5 -287 6 -286 28 -24 c27 -23 31 -24 163 -20
165 5 217 23 286 100 62 69 78 125 73 251 -6 156 -54 239 -166 294 -52 24 -70
27 -194 31 l-137 4 -32 -32z m354 -43 c55 -27 100 -77 121 -132 18 -47 25
-142 15 -204 -12 -79 -38 -131 -85 -169 -53 -44 -111 -57 -257 -57 l-128 0 1
293 c0 160 0 295 0 298 0 4 62 5 138 2 126 -3 142 -6 195 -31z"/>
<path d="M1260 772 l0 -200 48 5 c97 10 127 54 126 188 0 141 -29 186 -126
200 l-48 7 0 -200z m85 142 c32 -13 49 -65 49 -150 0 -88 -15 -127 -55 -139
-33 -11 -39 9 -39 142 0 151 3 163 45 147z"/>
<path d="M1831 1084 c-25 -23 -48 -75 -117 -254 -132 -349 -129 -336 -110
-365 18 -28 67 -40 127 -32 52 7 74 28 94 88 l17 49 64 0 c53 0 66 -3 71 -17
12 -34 33 -78 45 -95 10 -14 7 -21 -16 -45 -16 -15 -32 -38 -37 -50 -11 -30
-27 -29 -39 2 -26 67 -104 89 -137 38 -15 -22 -18 -49 -18 -151 0 -124 0 -125
27 -145 24 -18 30 -18 57 -7 25 10 37 10 61 0 24 -10 36 -10 61 0 24 11 35 10
55 -1 20 -10 32 -10 56 -1 19 7 37 8 47 2 10 -5 87 -9 172 -9 133 1 160 3 196
21 l43 20 25 -20 c21 -17 39 -20 94 -18 58 2 73 6 101 29 l32 27 34 -30 c42
-36 64 -38 101 -6 l28 25 -40 117 c-22 65 -49 128 -59 142 -16 20 -17 25 -5
33 8 5 20 9 26 9 7 0 20 11 28 24 15 22 15 47 1 283 -9 143 -16 269 -16 282 0
12 -14 36 -30 53 -29 28 -35 30 -86 26 -37 -3 -62 -11 -75 -24 -10 -11 -45
-85 -77 -164 -31 -79 -62 -145 -68 -147 -5 -2 -36 62 -69 142 -71 178 -90 200
-173 193 -91 -8 -93 -12 -108 -250 -7 -112 -13 -214 -14 -227 0 -48 -21 -5
-101 215 -44 120 -88 228 -99 238 -13 14 -37 21 -78 24 -54 4 -62 2 -91 -24z
m196 -157 c29 -78 77 -209 108 -292 30 -82 55 -153 55 -156 0 -3 -33 -5 -72
-4 l-73 1 -21 70 -22 69 -94 3 -95 3 -22 -73 -21 -73 -76 -1 c-50 -1 -73 3
-70 10 22 51 100 252 152 395 36 96 67 178 70 183 3 4 33 8 67 8 l62 0 52
-143z m438 -43 c41 -100 77 -198 80 -218 7 -33 25 -52 25 -25 0 6 37 105 82
220 l82 209 63 0 c63 0 63 0 63 -29 0 -33 29 -514 33 -546 2 -18 -4 -20 -71
-20 l-73 -1 3 163 c2 90 0 163 -4 163 -3 0 -12 -17 -18 -37 -6 -21 -34 -95
-63 -164 l-51 -127 -55 2 -55 2 -42 95 c-23 53 -52 127 -65 165 l-24 69 -3
-165 -2 -166 -71 0 -70 0 5 51 c3 27 10 142 16 255 6 113 13 224 16 248 l5 43
61 -3 60 -3 73 -181z m-3 -399 c23 -38 32 -44 73 -50 43 -7 45 -8 30 -25 -16
-18 -18 -18 -50 1 -18 11 -56 22 -83 26 l-51 6 14 28 c8 15 15 43 16 61 0 37
-3 40 51 -47z m279 -31 c21 -23 21 -23 2 -51 -11 -15 -23 -37 -27 -48 -6 -16
-9 -17 -16 -5 -6 8 -10 23 -10 32 0 10 -13 27 -29 39 l-30 22 25 36 c13 19 24
40 24 46 0 6 6 17 13 24 10 10 13 4 19 -30 4 -23 17 -52 29 -65z m-834 -139
c18 -44 34 -89 38 -100 4 -14 13 3 34 61 39 109 47 124 75 124 23 0 25 -4 30
-77 4 -43 8 -104 11 -135 l5 -58 -36 0 -35 0 2 65 c1 36 0 67 -2 70 -3 2 -16
-27 -29 -65 -22 -62 -27 -70 -50 -70 -23 0 -29 8 -55 75 -15 41 -30 75 -32 75
-2 0 -1 -34 3 -75 l7 -75 -37 0 -36 0 5 73 c16 208 14 198 43 195 23 -3 31
-14 59 -83z m398 55 c0 -24 -2 -25 -52 -22 l-53 3 0 -32 0 -32 45 5 c37 5 45
3 45 -11 0 -33 -15 -43 -54 -36 l-36 7 0 -36 0 -36 55 0 c52 0 55 -1 55 -25 0
-25 -1 -25 -84 -25 l-85 0 -3 131 c-2 72 -2 131 -1 132 1 1 39 2 85 2 82 0 83
-1 83 -25z m156 20 c54 -15 82 -51 87 -112 8 -103 -36 -148 -145 -148 l-63 0
0 135 0 135 43 0 c23 0 58 -5 78 -10z m193 -127 l1 -133 -32 0 -33 0 0 136 0
135 31 -3 32 -3 1 -132z m227 2 c27 -72 49 -131 49 -132 0 -2 -15 -3 -34 -3
-29 0 -34 4 -42 33 -9 29 -14 32 -52 34 -39 3 -42 1 -50 -30 -7 -27 -14 -33
-40 -35 -18 -2 -32 0 -32 4 0 9 80 225 92 247 6 12 18 17 35 15 24 -3 31 -16
74 -133z"/>
<path d="M1881 833 c-13 -43 -26 -86 -28 -95 -5 -16 2 -18 57 -18 55 0 62 2
56 18 -3 9 -16 52 -28 94 -13 43 -25 78 -28 78 -4 0 -16 -35 -29 -77z"/>
<path d="M2400 265 c0 -83 0 -85 24 -85 39 0 56 25 56 81 0 54 -24 89 -60 89
-18 0 -20 -7 -20 -85z"/>
<path d="M2792 300 c-18 -49 -15 -60 13 -60 14 0 25 1 25 3 0 1 -6 22 -14 46
l-13 45 -11 -34z"/>
</g>
</svg>
