<?xml version="1.0" standalone="no"?>
<!DOCTYPE svg PUBLIC "-//W3C//DTD SVG 1.1//EN" "http://www.w3.org/Graphics/SVG/1.1/DTD/svg11.dtd"><svg xmlns="http://www.w3.org/2000/svg" style="background-color:#FFF" width="500" height="500"><path stroke="black" fill="none" stroke-width="1" d="M388.38, 296.98L387.73, 298.12L387.09, 299.04L386.47, 299.67L385.84, 299.91L377.04, 300.02L372.48, 300.01L367.72, 300L370.41, 254.46L373.11, 208.73L381.74, 208.7L390.18, 208.84L391.05, 209.08L391.95, 209.64L392.72, 210.4L393.23, 211.21L418.95, 275.64L419.51, 274.55L420.12, 273.22L444.43, 211.57L445.05, 210.63L446.02, 209.78L447.15, 209.14L448.25, 208.86L456.04, 208.68L460.1, 208.71L464.34, 208.73L469.73, 299.73L448.46, 299.73L448.46, 251.9L447.27, 251.61L445.79, 254.64L437.1, 275.59L428.55, 296.58L428.1, 297.56L427.6, 298.34L426.41, 299.41L424.9, 299.93L423, 300.07L420.72, 300.06L418.72, 300.04L416.97, 299.98L415.44, 299.88L414.11, 299.7L412.94, 299.45L411.03, 298.61L409.48, 297.21L408.11, 295.12L407.41, 293.77L406.69, 292.19L405.9, 290.37L405.02, 288.29L391.89, 255.98L389.98, 251.67L388.38, 251.83L388.38, 296.98"/><path stroke="black" fill="none" stroke-width="1" d="M194.57, 269.5L194.57, 209.3L205.01, 209.12L215.35, 208.84L225.57, 208.88L230.64, 209.14L235.67, 209.63L238.79, 210.13L241.75, 210.83L244.55, 211.74L247.2, 212.84L249.69, 214.14L252.02, 215.62L254.21, 217.28L256.23, 219.12L258.11, 221.14L259.83, 223.32L261.4, 225.66L262.81, 228.16L264.07, 230.81L265.18, 233.61L266.14, 236.55L266.94, 239.62L268.24, 246.9L268.59, 250.55L268.74, 254.2L268.69, 257.86L268.43, 261.51L267.96, 265.17L267.28, 268.83L266.43, 272.26L265.37, 275.5L264.13, 278.55L262.69, 281.42L261.06, 284.08L259.25, 286.55L257.26, 288.83L255.08, 290.9L252.73, 292.77L250.21, 294.43L247.51, 295.88L244.65, 297.12L241.61, 298.15L238.42, 298.96L235.07, 299.56L231.55, 299.93L222.57, 300.23L208.78, 300.25L194.57, 300.24L194.57, 269.5"/><path stroke="black" fill="none" stroke-width="1" d="M179.04, 221.51L179, 231.83L178.93, 241.87L178.93, 251.73L179.11, 261.48L179.01, 267.36L178.38, 272.69L177.26, 277.49L175.66, 281.79L173.65, 285.59L171.24, 288.93L168.48, 291.81L165.41, 294.26L162.05, 296.29L158.46, 297.93L154.66, 299.19L150.69, 300.09L146.59, 300.64L142.39, 300.88L138.14, 300.81L133.86, 300.45L130.25, 299.91L126.86, 299.13L123.68, 298.12L120.72, 296.89L117.98, 295.44L115.47, 293.77L113.18, 291.89L111.12, 289.8L109.29, 287.5L107.69, 284.99L106.33, 282.29L105.2, 279.39L104.3, 276.29L103.65, 273.01L103.24, 269.54L103.07, 265.89L102.96, 238.65L103.01, 211.42L103.22, 208.89L124.86, 208.89L125.1, 213.03L125.14, 261.51L125.34, 265.99L125.93, 270.43L126.73, 273.54L127.88, 276.24L129.4, 278.53L131.26, 280.41L133.46, 281.87L135.98, 282.9L138.81, 283.5L141.96, 283.66L144.75, 283.4L147.27, 282.73L149.5, 281.65L151.44, 280.16L153.08, 278.27L154.4, 275.99L155.4, 273.32L156.05, 270.27L156.64, 264.32L156.8, 258.33L156.85, 233.83L156.84, 209.07L179.04, 209.07L179.04, 221.51"/><path stroke="black" fill="none" stroke-width="1" d="M301.77, 225.16L301.98, 224.5L302.13, 224.04L302.32, 223.48L303.59, 219.61L304.77, 215.59L305.45, 213.73L306.25, 212.08L307.22, 210.73L308.41, 209.74L310.11, 208.99L312, 208.54L314.03, 208.33L316.17, 208.31L320.59, 208.58L324.95, 208.86L326.05, 209.11L327.21, 209.72L328.19, 210.56L328.8, 211.48L345, 255.43L361.19, 299.7L338.67, 299.7L331.94, 278.17L302.55, 278.17L295.54, 299.84L273.35, 299.84L301.77, 225.17"/><path stroke="black" fill="none" stroke-width="1" d="M48.43, 209.82L54.24, 208.42L59.89, 207.74L65.4, 207.72L70.8, 208.33L76.1, 209.51L81.34, 211.22L86.52, 213.41L91.68, 216.05L83.97, 230.83L76.81, 227.62L73.28, 226.11L69.72, 224.77L67.24, 224.09L64.9, 223.75L62.72, 223.75L60.74, 224.06L59, 224.66L57.52, 225.55L56.34, 226.7L55.49, 228.1L55.04, 229.66L55, 231.29L55.36, 232.96L56.11, 234.64L57.25, 236.29L58.75, 237.88L60.6, 239.37L62.79, 240.75L69.27, 243.92L75.83, 246.95L80.3, 249.41L84.01, 252.05L87, 254.91L89.3, 258.04L90.94, 261.49L91.95, 265.3L92.36, 269.53L92.19, 274.22L91.45, 278.7L90.1, 282.87L88.16, 286.71L85.66, 290.17L82.63, 293.22L79.12, 295.82L75.13, 297.93L70.72, 299.52L68.32, 300.1L65.79, 300.5L60.39, 300.81L54.72, 300.49L48.93, 299.57L43.23, 298.09L37.78, 296.09L32.78, 293.59L30.49, 292.17L28.39, 290.65L35.27, 275.63L42.88, 279.39L46.62, 281.15L50.4, 282.73L52.61, 283.4L54.92, 283.82L59.64, 284.13L61.12, 284.06L62.49, 283.79L63.74, 283.32L64.86, 282.65L65.84, 281.79L66.66, 280.75L67.31, 279.51L67.77, 278.09L68.29, 274.97L68.32, 273.44L68.14, 271.96L67.71, 270.54L67, 269.21L65.98, 267.99L64.6, 266.9L60.29, 264.44L55.85, 262.2L50.21, 259.54L44.69, 256.7L41.26, 254.42L38.28, 251.88L35.77, 249.08L33.75, 246.02L32.25, 242.69L31.28, 239.07L30.88, 235.18L31.07, 230.99L31.76, 227.17L32.93, 223.72L34.54, 220.62L36.57, 217.85L39, 215.4L41.81, 213.26L44.96, 211.4L48.43, 209.82"/><path stroke="black" fill="none" stroke-width="1" d="M322.02, 352.01L320.28, 352.2L318.77, 352.14L317.48, 351.85L316.4, 351.33L315.5, 350.58L314.76, 349.61L314.17, 348.42L313.7, 347.02L312.29, 343.32L310.63, 339.68L309.05, 336.09L308.04, 334.32L306.77, 332.56L306.77, 351.78L297.3, 351.78L299.6, 312.25L302.39, 311.96L304.52, 311.82L306.13, 311.92L307.34, 312.32L308.28, 313.1L309.1, 314.33L309.91, 316.07L310.86, 318.42L315.2, 329.4L317.44, 335.09L319.78, 341.01L322.13, 335.19L324.41, 329.54L328.85, 318.53L329.81, 316.17L330.62, 314.41L331.43, 313.17L332.36, 312.38L333.54, 311.97L335.09, 311.85L337.15, 311.97L339.84, 312.24L342.23, 351.69L332.71, 351.69L332.71, 333.38L331.48, 333.09L328.31, 340.58L325.04, 348.02L323.66, 350.07L322.02, 352.01"/><path stroke="black" fill="none" stroke-width="1" d="M393.34, 352.11L380.3, 352.11L380.3, 312.21L389.74, 312L394.42, 312.02L399.05, 312.38L401.22, 312.8L403.27, 313.5L405.16, 314.46L406.86, 315.68L408.33, 317.14L409.54, 318.84L410.45, 320.78L411.03, 322.93L411.67, 327.41L411.97, 331.97L411.84, 336.52L411.22, 340.94L410.42, 343.58L409.18, 345.83L407.53, 347.7L405.47, 349.22L403.01, 350.4L400.16, 351.27L396.93, 351.83L393.34, 352.11"/><path stroke="black" fill="none" stroke-width="1" d="M456.23, 312.81L459.91, 322.68L463.48, 332.4L470.53, 351.74L460.93, 351.74L460.23, 350.06L459.6, 348.6L458.5, 346.24L457.49, 344.56L456.43, 343.43L455.17, 342.76L453.58, 342.43L451.52, 342.33L448.83, 342.35L447.61, 342.38L446.65, 342.52L445.87, 342.88L445.18, 343.57L444.49, 344.7L443.72, 346.38L442.79, 348.73L442.24, 350.18L441.62, 351.85L431.94, 351.85L439.55, 331.8L447.25, 311.5L456.23, 312.81"/><path stroke="black" fill="none" stroke-width="1" d="M366.51, 344.84L375.11, 344.84L375.11, 351.74L349.16, 351.74L349.16, 312.17L374.39, 312.17L374.39, 318.79L359.11, 318.79L359.11, 327.51L371.8, 327.51L370.71, 334.68L359.13, 334.68L359.13, 344.84L366.51, 344.84"/><path stroke="black" fill="none" stroke-width="1" d="M427.07, 311.88L427.65, 313.06L427.99, 314.15L428.2, 316.17L428.22, 351.79L418.49, 351.79L418.49, 311.88L427.07, 311.88"/><path stroke="black" fill="none" stroke-width="1" d="M388.35, 297.44L387.09, 299.1L386.47, 299.68L385.84, 299.91L377.04, 300.02L372.48, 300.01L367.72, 300L373.1, 208.73L381.74, 208.7L390.18, 208.84L391.05, 209.08L391.95, 209.64L392.72, 210.4L393.23, 211.21L418.95, 275.64L419.51, 274.55L420.12, 273.22L444.43, 211.57L445.05, 210.63L446.02, 209.78L447.15, 209.14L448.25, 208.86L456.04, 208.68L460.1, 208.71L464.34, 208.73L469.73, 299.73L448.46, 299.73L448.46, 251.9L447.27, 251.61L445.79, 254.64L437.1, 275.59L428.55, 296.58L428.1, 297.56L427.6, 298.34L426.41, 299.41L424.9, 299.93L423, 300.07L420.72, 300.06L418.72, 300.04L416.97, 299.98L415.44, 299.88L414.11, 299.7L412.94, 299.45L411.03, 298.61L409.49, 297.21L408.11, 295.12L407.42, 293.77L406.69, 292.19L405.9, 290.37L405.02, 288.29L391.89, 255.98L389.98, 251.67L388.38, 251.83L388.37, 274.46L388.35, 297.44"/><path stroke="black" fill="none" stroke-width="1" d="M194.57, 269L194.57, 209.3L205.01, 209.12L215.35, 208.84L225.57, 208.88L230.64, 209.14L235.68, 209.63L238.79, 210.13L241.75, 210.83L244.55, 211.74L247.2, 212.84L249.69, 214.14L252.02, 215.62L254.21, 217.28L256.23, 219.12L258.11, 221.14L259.83, 223.32L261.4, 225.66L262.81, 228.16L264.07, 230.81L265.18, 233.61L266.14, 236.55L266.95, 239.62L268.24, 246.9L268.59, 250.55L268.74, 254.2L268.69, 257.86L268.43, 261.51L267.96, 265.17L267.28, 268.83L266.43, 272.26L265.37, 275.5L264.13, 278.55L262.69, 281.42L261.06, 284.08L259.25, 286.55L257.26, 288.83L255.08, 290.9L252.73, 292.77L250.21, 294.43L247.51, 295.88L244.65, 297.12L241.61, 298.15L238.42, 298.96L235.07, 299.56L231.55, 299.93L222.57, 300.23L208.78, 300.25L194.57, 300.24L194.57, 269"/><path stroke="black" fill="none" stroke-width="1" d="M216.93, 275.43L216.93, 224.71L219.72, 224.37L222.35, 224.21L224.82, 224.24L227.13, 224.45L229.29, 224.85L231.29, 225.44L233.14, 226.22L234.84, 227.2L236.39, 228.38L237.78, 229.76L239.03, 231.34L240.13, 233.13L241.09, 235.12L241.9, 237.33L242.58, 239.75L243.1, 242.39L243.88, 248.4L244.2, 254.51L244.07, 260.63L243.47, 266.66L243.02, 269.23L242.42, 271.6L241.66, 273.75L240.75, 275.7L239.67, 277.45L238.44, 279L237.05, 280.36L235.49, 281.51L233.77, 282.48L231.88, 283.26L229.82, 283.85L227.59, 284.26L225.19, 284.48L222.61, 284.53L219.86, 284.4L216.93, 284.1L216.93, 275.43"/><path stroke="black" fill="none" stroke-width="1" d="M179.04, 222.01L178.93, 241.94L178.93, 251.74L179.11, 261.48L179.01, 267.36L178.38, 272.69L177.26, 277.49L175.66, 281.79L173.65, 285.59L171.24, 288.93L168.48, 291.81L165.41, 294.26L162.05, 296.29L158.46, 297.93L154.66, 299.19L150.69, 300.09L146.59, 300.64L142.39, 300.88L138.14, 300.81L133.86, 300.45L130.25, 299.91L126.86, 299.13L123.68, 298.12L120.72, 296.89L117.98, 295.44L115.47, 293.77L113.18, 291.89L111.12, 289.8L109.29, 287.5L107.69, 284.99L106.33, 282.29L105.2, 279.39L104.3, 276.29L103.65, 273.01L103.24, 269.54L103.07, 265.89L102.96, 238.65L103.01, 211.42L103.22, 208.89L124.86, 208.89L125.1, 213.03L125.14, 261.51L125.34, 265.99L125.93, 270.43L126.73, 273.54L127.88, 276.24L129.4, 278.53L131.26, 280.41L133.46, 281.87L135.98, 282.9L138.81, 283.5L141.96, 283.66L144.75, 283.4L147.27, 282.73L149.5, 281.65L151.44, 280.16L153.08, 278.27L154.4, 275.99L155.4, 273.32L156.05, 270.27L156.64, 264.32L156.8, 258.33L156.85, 233.83L156.84, 209.07L179.04, 209.07L179.04, 222.01"/><path stroke="black" fill="none" stroke-width="1" d="M301.89, 224.79L302.14, 223.99L302.32, 223.48L303.59, 219.61L304.77, 215.59L305.45, 213.73L306.25, 212.08L307.22, 210.73L308.41, 209.74L310.11, 208.99L312, 208.54L314.03, 208.33L316.17, 208.31L320.59, 208.58L324.95, 208.86L326.05, 209.11L327.21, 209.72L328.19, 210.56L328.8, 211.48L345, 255.43L361.19, 299.7L338.67, 299.7L331.94, 278.16L302.55, 278.16L295.54, 299.84L273.35, 299.84L301.89, 224.79"/><path stroke="black" fill="none" stroke-width="1" d="M314.75, 240.15L316, 236.08L316.64, 234.07L317.34, 231.88L326.8, 261.4L307.82, 261.4L314.75, 240.15"/><path stroke="black" fill="none" stroke-width="1" d="M48.79, 209.65L54.48, 208.31L60.04, 207.67L65.49, 207.68L70.85, 208.31L76.12, 209.5L81.34, 211.21L86.52, 213.41L91.68, 216.05L83.97, 230.83L76.81, 227.62L73.28, 226.11L69.72, 224.77L67.24, 224.09L64.9, 223.75L62.72, 223.75L60.74, 224.06L59, 224.66L57.52, 225.55L56.34, 226.7L55.49, 228.1L55.04, 229.66L55, 231.29L55.36, 232.96L56.11, 234.64L57.25, 236.29L58.75, 237.88L60.6, 239.37L62.79, 240.75L69.27, 243.92L75.83, 246.95L80.3, 249.41L84.01, 252.05L87, 254.91L89.3, 258.04L90.94, 261.49L91.95, 265.3L92.36, 269.53L92.19, 274.22L91.45, 278.7L90.1, 282.87L88.16, 286.71L85.66, 290.17L82.63, 293.22L79.12, 295.82L75.13, 297.93L70.72, 299.52L68.32, 300.1L65.79, 300.5L60.39, 300.81L54.72, 300.49L48.93, 299.57L43.23, 298.09L37.78, 296.09L32.78, 293.59L30.49, 292.17L28.39, 290.65L35.27, 275.63L42.88, 279.39L46.62, 281.15L50.4, 282.73L52.61, 283.4L54.92, 283.82L59.64, 284.13L61.12, 284.06L62.49, 283.79L63.74, 283.32L64.86, 282.65L65.84, 281.79L66.66, 280.75L67.31, 279.51L67.77, 278.09L68.29, 274.97L68.32, 273.44L68.14, 271.96L67.71, 270.54L67, 269.21L65.98, 267.99L64.6, 266.9L60.29, 264.44L55.85, 262.2L50.21, 259.54L44.69, 256.7L41.26, 254.42L38.28, 251.88L35.77, 249.08L33.75, 246.02L32.25, 242.68L31.28, 239.07L30.88, 235.18L31.07, 230.99L31.76, 227.17L32.93, 223.72L34.56, 220.61L36.62, 217.83L39.09, 215.36L41.96, 213.19L45.2, 211.29L48.79, 209.65"/><path stroke="black" fill="none" stroke-width="1" d="M321.61, 352.01L320, 352.2L318.59, 352.14L317.38, 351.85L316.35, 351.33L315.48, 350.58L314.76, 349.61L314.17, 348.42L313.7, 347.02L312.29, 343.32L310.63, 339.68L309.05, 336.09L308.05, 334.31L306.77, 332.56L306.77, 351.78L297.3, 351.78L299.6, 312.25L302.39, 311.96L304.52, 311.82L306.13, 311.92L307.34, 312.32L308.28, 313.1L309.1, 314.33L309.91, 316.07L310.86, 318.42L315.2, 329.4L317.44, 335.09L319.78, 341.01L322.13, 335.19L324.41, 329.54L328.85, 318.53L329.81, 316.17L330.62, 314.41L331.43, 313.17L332.36, 312.38L333.54, 311.97L335.09, 311.85L337.15, 311.97L339.85, 312.24L342.23, 351.69L332.71, 351.69L332.71, 333.38L331.48, 333.09L328.31, 340.58L325.04, 348.02L324.42, 349.08L323.61, 350.07L321.61, 352.01"/><path stroke="black" fill="none" stroke-width="1" d="M392.86, 352.11L380.3, 352.11L380.3, 312.21L389.74, 312L394.42, 312.02L399.05, 312.38L401.22, 312.8L403.27, 313.5L405.16, 314.46L406.86, 315.67L408.33, 317.14L409.54, 318.84L410.45, 320.78L411.03, 322.93L411.67, 327.41L411.97, 331.97L411.84, 336.52L411.22, 340.94L410.42, 343.58L409.18, 345.83L407.5, 347.7L405.41, 349.22L402.89, 350.4L399.95, 351.27L396.61, 351.83L392.86, 352.11"/><path stroke="black" fill="none" stroke-width="1" d="M401.97, 328.92L402.01, 330.56L402.04, 331.94L402.03, 334.3L401.77, 337.11L401.22, 339.44L400.37, 341.32L399.17, 342.78L397.59, 343.84L395.6, 344.55L393.16, 344.92L390.25, 344.98L390.25, 319.21L392.92, 319L395.12, 319.1L396.92, 319.56L398.37, 320.42L399.54, 321.74L400.49, 323.56L401.28, 325.94L401.97, 328.92"/><path stroke="black" fill="none" stroke-width="1" d="M456.44, 313.17L463.51, 332.44L470.53, 351.74L460.93, 351.74L460.23, 350.06L459.6, 348.6L458.5, 346.24L457.49, 344.56L456.43, 343.43L455.17, 342.76L453.58, 342.43L451.52, 342.33L448.83, 342.35L447.61, 342.38L446.65, 342.52L445.87, 342.88L445.18, 343.57L444.49, 344.7L443.72, 346.38L442.79, 348.73L442.24, 350.18L441.62, 351.85L431.94, 351.85L447.25, 311.5L451.79, 312.2L456.44, 313.17"/><path stroke="black" fill="none" stroke-width="1" d="M454.55, 332.24L454.35, 333.18L454.09, 333.91L453.41, 334.82L452.56, 335.16L451.58, 335.11L449.42, 334.58L448.33, 334.46L447.28, 334.7L451.26, 322.31L454.55, 332.24"/><path stroke="black" fill="none" stroke-width="1" d="M366.99, 344.84L375.11, 344.84L375.11, 351.74L349.16, 351.74L349.16, 312.17L374.39, 312.17L374.39, 318.79L359.11, 318.79L359.11, 327.51L371.8, 327.51L370.71, 334.68L359.13, 334.68L359.13, 344.84L366.99, 344.84"/><path stroke="black" fill="none" stroke-width="1" d="M427.49, 312.05L428.04, 314.17L428.2, 316.17L428.22, 351.79L418.49, 351.79L418.49, 311.88L422.92, 311.9L427.49, 312.05"/><path stroke="black" fill="none" stroke-width="1" d="M216.93, 274.94L216.93, 224.71L219.72, 224.37L222.35, 224.21L224.82, 224.24L227.13, 224.45L229.29, 224.85L231.29, 225.44L233.14, 226.22L234.84, 227.2L236.39, 228.38L237.78, 229.76L239.03, 231.34L240.13, 233.13L241.09, 235.12L241.9, 237.33L242.58, 239.75L243.1, 242.39L243.88, 248.4L244.2, 254.51L244.07, 260.63L243.47, 266.66L243.02, 269.23L242.42, 271.6L241.66, 273.75L240.75, 275.71L239.67, 277.45L238.44, 279L237.05, 280.36L235.49, 281.51L233.77, 282.48L231.88, 283.26L229.82, 283.85L227.59, 284.25L225.19, 284.48L222.61, 284.53L219.86, 284.4L216.93, 284.1L216.93, 274.94"/><path stroke="black" fill="none" stroke-width="1" d="M314.84, 239.77L317.34, 231.88L326.8, 261.4L307.82, 261.4L311.32, 250.65L314.84, 239.77"/><path stroke="black" fill="none" stroke-width="1" d="M402, 329.36L402.05, 332L402.03, 334.3L401.77, 337.11L401.22, 339.44L400.37, 341.32L399.17, 342.78L397.59, 343.84L395.6, 344.55L393.16, 344.92L390.25, 344.98L390.25, 319.21L392.92, 319L395.12, 319.11L396.92, 319.58L398.37, 320.47L399.55, 321.84L400.5, 323.75L401.3, 326.23L402, 329.36"/><path stroke="black" fill="none" stroke-width="1" d="M454.7, 332.63L454.48, 333.5L454.19, 334.17L453.47, 334.99L452.6, 335.26L451.6, 335.16L449.43, 334.58L448.33, 334.47L447.28, 334.7L451.26, 322.31L452.2, 325.16L453.06, 327.73L454.7, 332.63"/></svg>