<svg xmlns="http://www.w3.org/2000/svg" version="1.1" xmlns:xlink="http://www.w3.org/1999/xlink" xmlns:svgjs="http://svgjs.dev/svgjs" width="1000" height="999" viewBox="0 0 1000 999"><g transform="matrix(1,0,0,1,-0.215743440233382,-0.21552769679306039)"><svg viewBox="0 0 343 343" data-background-color="#051726" preserveAspectRatio="xMidYMid meet" height="999" width="1000" xmlns="http://www.w3.org/2000/svg" xmlns:xlink="http://www.w3.org/1999/xlink"><g id="tight-bounds" transform="matrix(1,0,0,1,0.0740000000000407,0.07400000000001228)"><svg viewBox="0 0 342.85155851775386 342.85155851775386" height="342.85155851775386" width="342.85155851775386"><g><svg></svg></g><g><svg viewBox="0 0 342.85155851775386 342.85155851775386" height="342.85155851775386" width="342.85155851775386"><g><path d="M0 171.426c0-94.676 76.75-171.426 171.426-171.426 94.676 0 171.426 76.75 171.426 171.426 0 94.676-76.75 171.426-171.426 171.426-94.676 0-171.426-76.75-171.426-171.426zM171.426 340.218c93.221 0 168.792-75.571 168.792-168.792 0-93.221-75.571-168.792-168.792-168.792-93.221 0-168.792 75.571-168.792 168.792 0 93.221 75.571 168.792 168.792 168.792z" data-fill-palette-color="tertiary" fill="#ffffff" stroke="transparent"></path><ellipse rx="164.56874808852186" ry="164.56874808852186" cx="171.42577925887693" cy="171.42577925887693" fill="#ffffff" stroke="transparent" stroke-width="0" fill-opacity="1" data-fill-palette-color="tertiary"></ellipse></g><g transform="matrix(1,0,0,1,64.84655864529837,133.19370196738268)"><svg viewBox="0 0 213.1584412271571 76.46415458298851" height="76.46415458298851" width="213.1584412271571"><g><svg viewBox="0 0 213.1584412271571 76.46415458298851" height="76.46415458298851" width="213.1584412271571"><g><svg viewBox="0 0 213.1584412271571 76.46415458298851" height="76.46415458298851" width="213.1584412271571"><g transform="matrix(1,0,0,1,0,47.257915122029964)"><svg viewBox="0 0 213.1584412271571 29.206239460958546" height="29.206239460958546" width="213.1584412271571"><g><svg viewBox="0 0 213.1584412271571 29.206239460958546" height="29.206239460958546" width="213.1584412271571"><g><svg viewBox="0 0 213.1584412271571 29.206239460958546" height="29.206239460958546" width="213.1584412271571"><g transform="matrix(1,0,0,1,0,0)"><svg width="213.1584412271571" viewBox="1.7999999523162842 -36.849998474121094 271.4800109863281 37.19999694824219" height="29.206239460958546" data-palette-color="#051726"><path d="M12.05 0.35L12.05 0.35Q8.85 0.35 6.55-0.63 4.25-1.6 3.03-2.88 1.8-4.15 1.8-5.05L1.8-5.05Q1.8-5.45 2.02-5.9 2.25-6.35 2.6-6.63 2.95-6.9 3.3-6.9L3.3-6.9Q3.8-6.9 4.33-6.28 4.85-5.65 5.73-4.83 6.6-4 8.05-3.38 9.5-2.75 11.85-2.75L11.85-2.75Q14.2-2.75 15.88-3.53 17.55-4.3 18.43-5.83 19.3-7.35 19.3-9.65L19.3-9.65Q19.3-12.05 18.4-13.53 17.5-15 16.03-15.93 14.55-16.85 12.8-17.53 11.05-18.2 9.28-18.88 7.5-19.55 6.03-20.58 4.55-21.6 3.63-23.28 2.7-24.95 2.7-27.55L2.7-27.55Q2.7-30.3 3.7-32.05 4.7-33.8 6.28-34.8 7.85-35.8 9.7-36.23 11.55-36.65 13.3-36.65L13.3-36.65Q14.7-36.65 16.18-36.43 17.65-36.2 18.9-35.8 20.15-35.4 20.93-34.85 21.7-34.3 21.7-33.6L21.7-33.6Q21.7-33.25 21.53-32.83 21.35-32.4 21.05-32.08 20.75-31.75 20.25-31.75L20.25-31.75Q19.8-31.75 19-32.23 18.2-32.7 16.82-33.18 15.45-33.65 13.25-33.65L13.25-33.65Q11.45-33.65 9.78-33.13 8.1-32.6 7.05-31.35 6-30.1 6-27.85L6-27.85Q6-25.85 6.93-24.63 7.85-23.4 9.33-22.65 10.8-21.9 12.55-21.28 14.3-20.65 16.07-19.88 17.85-19.1 19.33-17.93 20.8-16.75 21.7-14.85 22.6-12.95 22.6-9.95L22.6-9.95Q22.6-6.4 21.25-4.13 19.9-1.85 17.53-0.75 15.15 0.35 12.05 0.35ZM38.75 0.3L38.75 0.3Q35.8 0.3 33.45-0.75 31.1-1.8 29.7-4.15 28.3-6.5 28.3-10.4L28.3-10.4 28.3-35.35Q28.3-35.95 28.8-36.25 29.3-36.55 29.95-36.55L29.95-36.55Q30.6-36.55 31.1-36.25 31.6-35.95 31.6-35.35L31.6-35.35 31.6-10.4Q31.6-6.45 33.5-4.6 35.4-2.75 38.75-2.75L38.75-2.75Q42.15-2.75 44.05-4.6 45.95-6.45 45.95-10.4L45.95-10.4 45.95-35.35Q45.95-35.95 46.45-36.25 46.95-36.55 47.6-36.55L47.6-36.55Q48.25-36.55 48.75-36.25 49.25-35.95 49.25-35.35L49.25-35.35 49.25-10.4Q49.25-6.5 47.87-4.15 46.5-1.8 44.1-0.75 41.7 0.3 38.75 0.3ZM67 0L58.15 0Q57.5 0 57.07-0.35 56.65-0.7 56.65-1.25L56.65-1.25 56.65-35.35Q56.65-35.85 57.07-36.2 57.5-36.55 58.15-36.55L58.15-36.55 67-36.55Q69.95-36.55 72.32-35.5 74.7-34.45 76.07-32.1 77.45-29.75 77.45-25.9L77.45-25.9 77.45-10.7Q77.45-6.8 76.07-4.45 74.7-2.1 72.32-1.05 69.95 0 67 0L67 0ZM59.95-33.5L59.95-3.05 67-3.05Q70.34-3.05 72.25-4.9 74.15-6.75 74.15-10.7L74.15-10.7 74.15-25.9Q74.15-29.8 72.25-31.65 70.34-33.5 67-33.5L67-33.5 59.95-33.5ZM83.74 0L83.74 0Q83.34 0 82.89-0.18 82.44-0.35 82.14-0.68 81.84-1 81.84-1.4L81.84-1.4Q81.84-1.6 81.89-1.75L81.89-1.75 92.34-35.7Q92.54-36.3 93.09-36.58 93.64-36.85 94.29-36.85L94.29-36.85Q94.99-36.85 95.57-36.55 96.14-36.25 96.29-35.7L96.29-35.7 106.69-1.75Q106.74-1.6 106.74-1.45L106.74-1.45Q106.74-1.05 106.44-0.73 106.14-0.4 105.69-0.2 105.24 0 104.74 0L104.74 0Q104.34 0 103.99-0.2 103.64-0.4 103.54-0.85L103.54-0.85 101.19-8.55 87.39-8.55 85.09-0.85Q84.94-0.4 84.59-0.2 84.24 0 83.74 0ZM94.29-31.55L88.19-11.4 100.34-11.4 94.29-31.55ZM113.19 0L113.19 0Q112.54 0 112.04-0.33 111.54-0.65 111.54-1.3L111.54-1.3 111.54-34.95Q111.54-35.85 112.04-36.2 112.54-36.55 113.19-36.55L113.19-36.55Q113.79-36.55 114.27-36.23 114.74-35.9 115.14-35.38 115.54-34.85 115.84-34.25L115.84-34.25 124.44-17.65 133.04-34.25Q133.39-34.85 133.77-35.38 134.14-35.9 134.64-36.23 135.14-36.55 135.69-36.55L135.69-36.55Q136.39-36.55 136.87-36.2 137.34-35.85 137.34-34.95L137.34-34.95 137.34-1.3Q137.34-0.65 136.84-0.33 136.34 0 135.69 0L135.69 0Q135.09 0 134.56-0.33 134.04-0.65 134.04-1.3L134.04-1.3 134.04-29.4 125.74-13.7Q125.44-13.15 125.09-12.9 124.74-12.65 124.39-12.65L124.39-12.65Q124.09-12.65 123.74-12.88 123.39-13.1 123.09-13.7L123.09-13.7 114.84-29.55 114.84-1.3Q114.84-0.65 114.32-0.33 113.79 0 113.19 0ZM145.44 0.3L145.44 0.3Q144.44 0.3 143.79-0.4 143.14-1.1 143.14-2L143.14-2Q143.14-3 143.79-3.68 144.44-4.35 145.44-4.35L145.44-4.35Q146.34-4.35 147.01-3.68 147.69-3 147.69-2L147.69-2Q147.69-1.1 147.01-0.4 146.34 0.3 145.44 0.3ZM155.14 0L155.14 0Q154.49 0 153.99-0.33 153.49-0.65 153.49-1.3L153.49-1.3 153.49-34.95Q153.49-35.85 153.99-36.2 154.49-36.55 155.14-36.55L155.14-36.55Q155.74-36.55 156.21-36.23 156.69-35.9 157.09-35.38 157.49-34.85 157.79-34.25L157.79-34.25 166.39-17.65 174.99-34.25Q175.34-34.85 175.71-35.38 176.09-35.9 176.59-36.23 177.09-36.55 177.64-36.55L177.64-36.55Q178.34-36.55 178.81-36.2 179.29-35.85 179.29-34.95L179.29-34.95 179.29-1.3Q179.29-0.65 178.79-0.33 178.29 0 177.64 0L177.64 0Q177.04 0 176.51-0.33 175.99-0.65 175.99-1.3L175.99-1.3 175.99-29.4 167.69-13.7Q167.39-13.15 167.04-12.9 166.69-12.65 166.34-12.65L166.34-12.65Q166.04-12.65 165.69-12.88 165.34-13.1 165.04-13.7L165.04-13.7 156.79-29.55 156.79-1.3Q156.79-0.65 156.26-0.33 155.74 0 155.14 0ZM206.18 0L188.38 0Q187.83 0 187.36-0.33 186.88-0.65 186.88-1.3L186.88-1.3 186.88-35.3Q186.88-35.9 187.36-36.23 187.83-36.55 188.38-36.55L188.38-36.55 206.18-36.55Q206.83-36.55 207.13-36.08 207.43-35.6 207.43-35.1L207.43-35.1Q207.43-34.45 207.11-33.98 206.78-33.5 206.18-33.5L206.18-33.5 190.18-33.5 190.18-19.75 198.03-19.75Q198.63-19.75 198.96-19.3 199.28-18.85 199.28-18.25L199.28-18.25Q199.28-17.8 198.98-17.35 198.68-16.9 198.03-16.9L198.03-16.9 190.18-16.9 190.18-3.05 206.18-3.05Q206.78-3.05 207.11-2.6 207.43-2.15 207.43-1.5L207.43-1.5Q207.43-0.95 207.13-0.48 206.83 0 206.18 0L206.18 0ZM222.63 0L213.78 0Q213.13 0 212.71-0.35 212.28-0.7 212.28-1.25L212.28-1.25 212.28-35.35Q212.28-35.85 212.71-36.2 213.13-36.55 213.78-36.55L213.78-36.55 222.63-36.55Q225.58-36.55 227.96-35.5 230.33-34.45 231.71-32.1 233.08-29.75 233.08-25.9L233.08-25.9 233.08-10.7Q233.08-6.8 231.71-4.45 230.33-2.1 227.96-1.05 225.58 0 222.63 0L222.63 0ZM215.58-33.5L215.58-3.05 222.63-3.05Q225.98-3.05 227.88-4.9 229.78-6.75 229.78-10.7L229.78-10.7 229.78-25.9Q229.78-29.8 227.88-31.65 225.98-33.5 222.63-33.5L222.63-33.5 215.58-33.5ZM241.93 0L241.93 0Q241.28 0 240.78-0.33 240.28-0.65 240.28-1.3L240.28-1.3 240.28-35.35Q240.28-35.95 240.78-36.25 241.28-36.55 241.93-36.55L241.93-36.55Q242.53-36.55 243.05-36.25 243.58-35.95 243.58-35.35L243.58-35.35 243.58-1.3Q243.58-0.65 243.05-0.33 242.53 0 241.93 0ZM250.28 0L250.28 0Q249.88 0 249.43-0.18 248.98-0.35 248.68-0.68 248.38-1 248.38-1.4L248.38-1.4Q248.38-1.6 248.43-1.75L248.43-1.75 258.88-35.7Q259.08-36.3 259.63-36.58 260.18-36.85 260.83-36.85L260.83-36.85Q261.53-36.85 262.1-36.55 262.68-36.25 262.83-35.7L262.83-35.7 273.23-1.75Q273.28-1.6 273.28-1.45L273.28-1.45Q273.28-1.05 272.98-0.73 272.68-0.4 272.23-0.2 271.78 0 271.28 0L271.28 0Q270.88 0 270.53-0.2 270.18-0.4 270.08-0.85L270.08-0.85 267.73-8.55 253.93-8.55 251.63-0.85Q251.48-0.4 251.13-0.2 250.78 0 250.28 0ZM260.83-31.55L254.73-11.4 266.88-11.4 260.83-31.55Z" opacity="1" transform="matrix(1,0,0,1,0,0)" fill="#051726" class="undefined-text-0" data-fill-palette-color="quaternary" id="text-0"></path></svg></g></svg></g></svg></g></svg></g><g transform="matrix(1,0,0,1,73.73994370833597,0)"><svg viewBox="0 0 65.67855381048516 40.36302293504471" height="40.36302293504471" width="65.67855381048516"><g><svg xmlns="http://www.w3.org/2000/svg" data-name="Layer 1" viewBox="2.430551767349243 20.79190444946289 95.1390609741211 58.46809768676758" x="0" y="0" height="40.36302293504471" width="65.67855381048516" class="icon-icon-0" data-fill-palette-color="quaternary" id="icon-0"><path d="M62.78 23l32 55.42 1.3-2.26h-64l1.3 2.26L65.37 23a1.5 1.5 0 0 0-2.59-1.51L30.79 77a1.51 1.51 0 0 0 1.3 2.26h64A1.51 1.51 0 0 0 97.37 77l-32-55.42A1.5 1.5 0 0 0 62.78 23Z" fill="#051726" data-fill-palette-color="quaternary"></path><path d="M34.63 23l32 55.42 1.3-2.26h-64l1.3 2.26L37.22 23a1.5 1.5 0 0 0-2.59-1.51L2.63 77a1.51 1.51 0 0 0 1.3 2.26h64A1.51 1.51 0 0 0 69.21 77l-32-55.42A1.5 1.5 0 0 0 34.63 23Z" fill="#051726" data-fill-palette-color="quaternary"></path></svg></g></svg></g><g></g></svg></g></svg></g></svg></g></svg></g><defs></defs></svg><rect width="342.85155851775386" height="342.85155851775386" fill="none" stroke="none" visibility="hidden"></rect></g></svg></g></svg>