<?xml version="1.0" standalone="no"?>
<!DOCTYPE svg PUBLIC "-//W3C//DTD SVG 20010904//EN"
 "http://www.w3.org/TR/2001/REC-SVG-20010904/DTD/svg10.dtd">
<svg version="1.0" xmlns="http://www.w3.org/2000/svg"
 width="300.000000pt" height="200.000000pt" viewBox="0 0 1264.000000 492.000000"
 preserveAspectRatio="xMidYMid meet">
<metadata>
Created by potrace 1.16, written by Peter Selinger 2001-2019
</metadata>
<g transform="translate(0.000000,492.000000) scale(0.100000,-0.100000)"
fill="#000000" stroke="none">
<path d="M0 2460 l0 -2460 6320 0 6320 0 0 2460 0 2460 -6320 0 -6320 0 0
-2460z m1347 2029 c152 -29 264 -62 388 -114 63 -27 175 -95 175 -106 0 -6 -8
-23 -18 -37 -10 -15 -54 -94 -96 -177 -43 -82 -84 -156 -92 -164 -12 -13 -35
-4 -171 62 -191 92 -295 122 -398 114 -83 -6 -131 -24 -169 -62 -35 -35 -46
-65 -46 -122 0 -45 34 -128 68 -167 47 -52 222 -154 362 -212 177 -73 365
-193 433 -276 161 -197 197 -478 95 -738 -206 -527 -863 -667 -1543 -328 -140
69 -150 78 -131 122 66 148 178 382 186 384 5 2 29 -10 52 -26 101 -68 333
-176 433 -201 66 -16 180 -16 236 0 65 20 133 90 153 158 20 70 20 116 -1 181
-29 90 -104 146 -328 244 -245 107 -382 193 -487 305 -136 144 -194 303 -185
501 8 169 59 293 175 421 115 126 259 204 452 244 105 21 330 19 457 -6z
m4432 -19 c244 -38 476 -152 617 -302 189 -201 290 -461 313 -810 41 -612
-162 -1054 -572 -1243 -241 -111 -439 -134 -1052 -119 l-380 9 -3 1237 -2
1237 132 4 c265 7 873 -1 947 -13z m-2959 -752 c0 -444 4 -800 10 -850 23
-196 112 -331 260 -390 46 -19 75 -23 175 -23 109 0 125 3 177 27 99 46 171
140 203 264 28 112 35 318 35 1026 l0 708 303 -2 302 -3 0 -795 c0 -872 -3
-924 -61 -1099 -100 -302 -341 -503 -693 -576 -182 -38 -413 -37 -599 1 -103
21 -153 38 -247 85 -242 120 -391 339 -452 664 -14 79 -17 192 -20 898 -2 445
-1 813 2 818 4 5 132 9 306 9 l299 0 0 -762z m5515 740 c6 -20 42 -119 227
-623 16 -44 37 -102 47 -130 10 -27 96 -261 191 -520 95 -258 181 -492 191
-520 10 -27 31 -86 47 -130 158 -429 192 -523 192 -528 0 -9 -592 -8 -605 1
-6 4 -48 127 -93 273 -45 147 -86 279 -92 293 l-10 26 -389 0 c-305 0 -391 -3
-399 -13 -6 -7 -41 -105 -77 -217 -36 -113 -78 -241 -93 -285 l-27 -80 -297
-3 c-331 -3 -313 -7 -282 66 8 20 39 100 69 177 67 177 248 655 354 935 45
118 95 249 111 290 16 41 106 276 199 522 93 246 175 456 181 467 10 20 18 21
280 21 l269 0 6 -22z m1756 -8 c10 -33 4 -19 314 -790 146 -366 293 -746 326
-845 33 -99 62 -181 64 -183 2 -2 11 20 19 49 34 115 127 355 392 1016 152
378 285 708 294 733 l18 45 256 3 c201 2 256 0 256 -10 0 -7 5 -65 10 -128 5
-63 14 -209 20 -325 6 -115 17 -304 25 -420 8 -115 17 -268 20 -340 3 -71 12
-224 20 -340 8 -115 17 -273 20 -350 4 -77 13 -232 20 -345 8 -112 11 -208 9
-212 -3 -4 -131 -8 -285 -8 -259 0 -279 1 -279 18 -1 9 -6 89 -11 177 -6 88
-14 385 -17 660 l-7 499 -47 -119 c-25 -66 -67 -172 -91 -235 -63 -162 -407
-972 -419 -988 -12 -14 -434 -18 -456 -3 -7 4 -39 68 -71 142 -32 74 -93 215
-136 314 -82 190 -259 635 -315 793 -20 58 -36 89 -41 81 -4 -7 -8 -182 -8
-388 -1 -369 -17 -927 -27 -943 -3 -4 -129 -8 -281 -8 l-276 0 7 163 c4 89 11
214 16 277 6 63 17 246 25 405 8 160 17 315 20 345 3 30 12 177 20 325 8 149
21 374 29 500 9 127 18 283 22 348 l7 117 265 -2 266 -3 7 -25z m-2063 -3117
c72 -181 142 -362 155 -403 14 -41 28 -74 33 -73 5 1 16 26 25 55 14 46 219
564 278 701 l20 47 110 0 c107 0 111 -1 115 -22 3 -13 10 -122 16 -243 9 -191
22 -404 46 -748 l6 -88 -129 3 -128 3 -10 290 -10 290 -22 -52 c-13 -28 -23
-54 -23 -58 0 -8 -159 -393 -178 -430 -21 -42 -27 -45 -118 -45 -64 0 -86 4
-102 17 -19 17 -105 210 -203 458 l-44 110 -5 -280 c-3 -154 -9 -286 -13 -292
-6 -9 -43 -13 -128 -13 l-119 0 5 78 c3 42 10 160 15 262 21 398 42 736 45
748 3 9 36 12 119 12 l114 0 130 -327z m1681 245 c-3 -131 21 -118 -220 -118
l-209 0 -1 -62 c-1 -35 -2 -85 -2 -113 l-1 -50 178 -3 177 -2 -7 -63 c-3 -34
-9 -78 -13 -97 l-7 -35 -162 -3 -162 -2 0 -38 c0 -20 -3 -81 -7 -134 l-6 -98
232 0 232 0 -3 -97 -3 -98 -357 -3 -358 -2 0 550 0 550 351 0 350 0 -2 -82z
m644 72 c189 -35 323 -167 379 -370 19 -72 15 -303 -6 -375 -51 -169 -138
-261 -296 -316 -61 -22 -81 -23 -320 -24 l-255 0 -1 540 c-1 297 0 543 3 548
7 11 432 8 496 -3z m825 -537 l-3 -548 -132 -3 -133 -3 0 106 c0 58 0 301 0
540 0 239 0 440 0 445 0 6 52 10 135 10 l135 0 -2 -547z m773 492 c9 -27 31
-86 47 -130 16 -44 88 -240 160 -435 71 -195 139 -379 151 -408 12 -29 21 -57
21 -62 0 -12 -249 -13 -266 -2 -10 7 -25 53 -60 182 -8 30 -19 58 -23 63 -4 4
-86 6 -182 5 l-174 -3 -33 -105 c-53 -168 -32 -150 -176 -150 -69 0 -127 4
-130 9 -3 5 22 80 55 167 33 88 116 305 184 484 68 179 133 351 145 383 l23
58 120 -3 120 -3 18 -50z"/>
<path d="M5316 4045 c-3 -8 -4 -376 -3 -818 l2 -802 145 0 c163 1 226 12 313
58 207 109 301 379 284 818 -18 451 -164 694 -446 745 -109 19 -287 19 -295
-1z"/>
<path d="M8037 3833 c-4 -7 -247 -741 -255 -770 -3 -10 53 -13 252 -13 170 0
256 3 256 10 0 6 -38 126 -84 268 -47 141 -102 313 -122 382 -40 136 -40 135
-47 123z"/>
<path d="M10130 1111 l0 -361 63 0 c117 0 181 35 225 124 48 95 49 342 2 451
-41 95 -99 133 -216 142 l-74 6 0 -362z"/>
<path d="M11782 1303 c-21 -59 -92 -274 -92 -280 0 -6 217 -3 222 3 4 3 -6 40
-22 82 -15 42 -38 116 -50 165 -13 48 -26 87 -30 87 -4 0 -17 -26 -28 -57z"/>
</g>
</svg>
