<?xml version="1.0" standalone="no"?>
<!DOCTYPE svg PUBLIC "-//W3C//DTD SVG 20010904//EN"
 "http://www.w3.org/TR/2001/REC-SVG-20010904/DTD/svg10.dtd">
<svg version="1.0" xmlns="http://www.w3.org/2000/svg"
 width="300.000000pt" height="200.000000pt" viewBox="0 0 1264.000000 492.000000"
 preserveAspectRatio="xMidYMid meet">
<metadata>
Created by potrace 1.16, written by Peter Selinger 2001-2019
</metadata>
<g transform="translate(0.000000,492.000000) scale(0.100000,-0.100000)"
fill="#fff" stroke="none">
<path d="M890 4495 c-193 -40 -337 -118 -452 -244 -116 -128 -167 -252 -175
-421 -9 -198 49 -357 185 -501 105 -112 242 -198 487 -305 224 -98 299 -154
328 -244 21 -65 21 -111 1 -181 -20 -68 -88 -138 -153 -158 -56 -16 -170 -16
-236 0 -100 25 -332 133 -433 201 -23 16 -47 28 -52 26 -8 -2 -120 -236 -186
-384 -19 -44 -9 -53 131 -122 680 -339 1337 -199 1543 328 53 135 70 280 48
406 -35 201 -104 320 -250 429 -67 50 -227 138 -326 179 -140 58 -315 160
-362 212 -55 62 -83 174 -59 237 38 100 189 141 361 98 51 -13 148 -53 243
-98 136 -66 159 -75 171 -62 8 8 49 82 92 164 42 83 86 162 96 177 10 14 18
31 18 37 0 11 -112 79 -175 106 -216 91 -427 135 -638 134 -78 0 -171 -7 -207
-14z"/>
<path d="M4832 4483 l-132 -4 2 -1237 3 -1237 380 -9 c613 -15 811 8 1052 119
410 189 613 631 572 1243 -23 349 -124 609 -313 810 -141 150 -373 264 -617
302 -74 12 -682 20 -947 13z m779 -437 c227 -41 360 -201 423 -510 9 -43 19
-149 23 -235 17 -439 -77 -709 -284 -818 -87 -46 -150 -57 -313 -58 l-145 0
-2 802 c-1 442 0 810 3 818 8 20 186 20 295 1z"/>
<path d="M2215 4471 c-3 -5 -4 -373 -2 -818 4 -880 4 -886 63 -1068 102 -316
323 -510 656 -579 307 -64 648 -25 886 100 258 135 401 347 450 667 15 98 17
210 17 907 l0 795 -302 3 -303 2 0 -708 c0 -708 -7 -914 -35 -1026 -32 -124
-104 -218 -203 -264 -52 -24 -68 -27 -177 -27 -100 0 -129 4 -175 23 -148 59
-237 194 -260 390 -6 50 -10 406 -10 850 l0 762 -299 0 c-174 0 -302 -4 -306
-9z"/>
<path d="M7780 4459 c-6 -11 -88 -221 -181 -467 -93 -246 -183 -481 -199 -522
-16 -41 -66 -172 -111 -290 -106 -280 -287 -758 -354 -935 -30 -77 -61 -157
-69 -177 -31 -73 -49 -69 282 -66 l297 3 27 80 c15 44 57 172 93 285 36 112
71 210 77 217 8 10 94 13 399 13 l389 0 10 -26 c6 -14 47 -146 92 -293 45
-146 87 -269 93 -273 13 -9 605 -10 605 -1 0 5 -34 99 -192 528 -16 44 -37
103 -47 130 -10 28 -96 262 -191 520 -95 259 -181 493 -191 520 -10 28 -31 86
-47 130 -185 504 -221 603 -227 623 l-6 22 -269 0 c-262 0 -270 -1 -280 -21z
m304 -749 c20 -69 75 -241 122 -382 46 -142 84 -262 84 -268 0 -7 -86 -10
-256 -10 -199 0 -255 3 -252 13 8 29 251 763 255 770 7 12 7 13 47 -123z"/>
<path d="M9546 4363 c-4 -65 -13 -221 -22 -348 -8 -126 -21 -351 -29 -500 -8
-148 -17 -295 -20 -325 -3 -30 -12 -185 -20 -345 -8 -159 -19 -342 -25 -405
-5 -63 -12 -188 -16 -277 l-7 -163 276 0 c152 0 278 4 281 8 10 16 26 574 27
943 0 206 4 381 8 388 5 8 21 -23 41 -81 56 -158 233 -603 315 -793 43 -99
104 -240 136 -314 32 -74 64 -138 71 -142 22 -15 444 -11 456 3 12 16 356 826
419 988 24 63 66 169 91 235 l47 119 7 -499 c3 -275 11 -572 17 -660 5 -88 10
-168 11 -177 0 -17 20 -18 279 -18 154 0 282 4 285 8 2 4 -1 100 -9 212 -7
113 -16 268 -20 345 -3 77 -12 235 -20 350 -8 116 -17 269 -20 340 -3 72 -12
225 -20 340 -8 116 -19 305 -25 420 -6 116 -15 262 -20 325 -5 63 -10 121 -10
128 0 10 -55 12 -256 10 l-256 -3 -18 -45 c-9 -25 -142 -355 -294 -733 -265
-661 -358 -901 -392 -1016 -8 -29 -17 -51 -19 -49 -2 2 -31 84 -64 183 -33 99
-180 479 -326 845 -310 771 -304 757 -314 790 l-7 25 -266 3 -265 2 -7 -117z"/>
<path d="M7665 1648 c-3 -12 -24 -350 -45 -748 -5 -102 -12 -220 -15 -262 l-5
-78 119 0 c85 0 122 4 128 13 4 6 10 138 13 292 l5 280 44 -110 c98 -248 184
-441 203 -458 16 -13 38 -17 102 -17 91 0 97 3 118 45 19 37 178 422 178 430
0 4 10 30 23 58 l22 52 10 -290 10 -290 128 -3 129 -3 -6 88 c-24 344 -37 557
-46 748 -6 121 -13 230 -16 243 -4 21 -8 22 -115 22 l-110 0 -20 -47 c-59
-137 -264 -655 -278 -701 -9 -29 -20 -54 -25 -55 -5 -1 -19 32 -33 73 -13 41
-83 222 -155 403 l-130 327 -114 0 c-83 0 -116 -3 -119 -12z"/>
<path d="M9010 1110 l0 -550 358 2 357 3 3 98 3 97 -232 0 -232 0 6 98 c4 53
7 114 7 134 l0 38 162 2 162 3 7 35 c4 19 10 63 13 97 l7 63 -177 2 -178 3 1
50 c0 28 1 78 2 113 l1 62 209 0 c241 0 217 -13 220 118 l2 82 -350 0 -351 0
0 -550z"/>
<path d="M9857 1653 c-3 -5 -4 -251 -3 -548 l1 -540 255 0 c239 1 259 2 320
24 158 55 245 147 296 316 21 72 25 303 6 375 -56 203 -190 335 -379 370 -64
11 -489 14 -496 3z m459 -211 c51 -26 78 -56 104 -117 47 -109 46 -356 -2
-451 -44 -89 -108 -124 -225 -124 l-63 0 0 361 0 362 74 -6 c44 -3 89 -13 112
-25z"/>
<path d="M10910 1650 c0 -5 0 -206 0 -445 0 -239 0 -482 0 -540 l0 -106 133 3
132 3 3 548 2 547 -135 0 c-83 0 -135 -4 -135 -10z"/>
<path d="M11670 1603 c-12 -32 -77 -204 -145 -383 -68 -179 -151 -396 -184
-484 -33 -87 -58 -162 -55 -167 3 -5 61 -9 130 -9 144 0 123 -18 176 150 l33
105 174 3 c96 1 178 -1 182 -5 4 -5 15 -33 23 -63 35 -129 50 -175 60 -182 17
-11 266 -10 266 2 0 5 -9 33 -21 62 -12 29 -80 213 -151 408 -72 195 -144 391
-160 435 -16 44 -38 103 -47 130 l-18 50 -120 3 -120 3 -23 -58z m170 -330
c12 -49 35 -123 50 -165 16 -42 26 -79 22 -82 -5 -6 -222 -9 -222 -3 0 6 71
221 92 280 11 31 24 57 28 57 4 0 17 -39 30 -87z"/>
</g>
</svg>
